<?xml version="1.0" encoding="utf-8" standalone="no"?>
<!DOCTYPE svg PUBLIC "-//W3C//DTD SVG 1.1//EN"
  "http://www.w3.org/Graphics/SVG/1.1/DTD/svg11.dtd">
<svg xmlns:xlink="http://www.w3.org/1999/xlink" width="864pt" height="504pt" viewBox="0 0 864 504" xmlns="http://www.w3.org/2000/svg" version="1.1">
 <metadata>
  <rdf:RDF xmlns:dc="http://purl.org/dc/elements/1.1/" xmlns:cc="http://creativecommons.org/ns#" xmlns:rdf="http://www.w3.org/1999/02/22-rdf-syntax-ns#">
   <cc:Work>
    <dc:type rdf:resource="http://purl.org/dc/dcmitype/StillImage"/>
    <dc:date>2022-12-03T19:58:58.632083</dc:date>
    <dc:format>image/svg+xml</dc:format>
    <dc:creator>
     <cc:Agent>
      <dc:title>Matplotlib v3.5.1, https://matplotlib.org/</dc:title>
     </cc:Agent>
    </dc:creator>
   </cc:Work>
  </rdf:RDF>
 </metadata>
 <defs>
  <style type="text/css">*{stroke-linejoin: round; stroke-linecap: butt}</style>
 </defs>
 <g id="figure_1">
  <g id="patch_1">
   <path d="M 0 504 
L 864 504 
L 864 0 
L 0 0 
z
" style="fill: #ffffff"/>
  </g>
  <g id="axes_1">
   <g id="patch_2">
    <path d="M 108 448.56 
L 777.6 448.56 
L 777.6 60.48 
L 108 60.48 
z
" style="fill: #ffffff"/>
   </g>
   <g id="matplotlib.axis_1">
    <g id="xtick_1">
     <g id="line2d_1">
      <path d="M 138.436364 448.56 
L 138.436364 60.48 
" clip-path="url(#p4b994fede8)" style="fill: none; stroke: #b0b0b0; stroke-width: 0.8; stroke-linecap: square"/>
     </g>
     <g id="line2d_2">
      <defs>
       <path id="m07bd816a76" d="M 0 0 
L 0 3.5 
" style="stroke: #000000; stroke-width: 0.8"/>
      </defs>
      <g>
       <use xlink:href="#m07bd816a76" x="138.436364" y="448.56" style="stroke: #000000; stroke-width: 0.8"/>
      </g>
     </g>
     <g id="text_1">
      <!-- 0.0 -->
      <g transform="translate(122.811364 472.919375)scale(0.25 -0.25)">
       <defs>
        <path id="TimesNewRomanPSMT-30" d="M 231 2094 
Q 231 2819 450 3342 
Q 669 3866 1031 4122 
Q 1313 4325 1613 4325 
Q 2100 4325 2488 3828 
Q 2972 3213 2972 2159 
Q 2972 1422 2759 906 
Q 2547 391 2217 158 
Q 1888 -75 1581 -75 
Q 975 -75 572 641 
Q 231 1244 231 2094 
z
M 844 2016 
Q 844 1141 1059 588 
Q 1238 122 1591 122 
Q 1759 122 1940 273 
Q 2122 425 2216 781 
Q 2359 1319 2359 2297 
Q 2359 3022 2209 3506 
Q 2097 3866 1919 4016 
Q 1791 4119 1609 4119 
Q 1397 4119 1231 3928 
Q 1006 3669 925 3112 
Q 844 2556 844 2016 
z
" transform="scale(0.015625)"/>
        <path id="TimesNewRomanPSMT-2e" d="M 800 606 
Q 947 606 1047 504 
Q 1147 403 1147 259 
Q 1147 116 1045 14 
Q 944 -88 800 -88 
Q 656 -88 554 14 
Q 453 116 453 259 
Q 453 406 554 506 
Q 656 606 800 606 
z
" transform="scale(0.015625)"/>
       </defs>
       <use xlink:href="#TimesNewRomanPSMT-30"/>
       <use xlink:href="#TimesNewRomanPSMT-2e" x="50"/>
       <use xlink:href="#TimesNewRomanPSMT-30" x="75"/>
      </g>
     </g>
    </g>
    <g id="xtick_2">
     <g id="line2d_3">
      <path d="M 219.022797 448.56 
L 219.022797 60.48 
" clip-path="url(#p4b994fede8)" style="fill: none; stroke: #b0b0b0; stroke-width: 0.8; stroke-linecap: square"/>
     </g>
     <g id="line2d_4">
      <g>
       <use xlink:href="#m07bd816a76" x="219.022797" y="448.56" style="stroke: #000000; stroke-width: 0.8"/>
      </g>
     </g>
     <g id="text_2">
      <!-- 2.5 -->
      <g transform="translate(203.397797 472.919375)scale(0.25 -0.25)">
       <defs>
        <path id="TimesNewRomanPSMT-32" d="M 2934 816 
L 2638 0 
L 138 0 
L 138 116 
Q 1241 1122 1691 1759 
Q 2141 2397 2141 2925 
Q 2141 3328 1894 3587 
Q 1647 3847 1303 3847 
Q 991 3847 742 3664 
Q 494 3481 375 3128 
L 259 3128 
Q 338 3706 661 4015 
Q 984 4325 1469 4325 
Q 1984 4325 2329 3994 
Q 2675 3663 2675 3213 
Q 2675 2891 2525 2569 
Q 2294 2063 1775 1497 
Q 997 647 803 472 
L 1909 472 
Q 2247 472 2383 497 
Q 2519 522 2628 598 
Q 2738 675 2819 816 
L 2934 816 
z
" transform="scale(0.015625)"/>
        <path id="TimesNewRomanPSMT-35" d="M 2778 4238 
L 2534 3706 
L 1259 3706 
L 981 3138 
Q 1809 3016 2294 2522 
Q 2709 2097 2709 1522 
Q 2709 1188 2573 903 
Q 2438 619 2231 419 
Q 2025 219 1772 97 
Q 1413 -75 1034 -75 
Q 653 -75 479 54 
Q 306 184 306 341 
Q 306 428 378 495 
Q 450 563 559 563 
Q 641 563 702 538 
Q 763 513 909 409 
Q 1144 247 1384 247 
Q 1750 247 2026 523 
Q 2303 800 2303 1197 
Q 2303 1581 2056 1914 
Q 1809 2247 1375 2428 
Q 1034 2569 447 2591 
L 1259 4238 
L 2778 4238 
z
" transform="scale(0.015625)"/>
       </defs>
       <use xlink:href="#TimesNewRomanPSMT-32"/>
       <use xlink:href="#TimesNewRomanPSMT-2e" x="50"/>
       <use xlink:href="#TimesNewRomanPSMT-35" x="75"/>
      </g>
     </g>
    </g>
    <g id="xtick_3">
     <g id="line2d_5">
      <path d="M 299.609231 448.56 
L 299.609231 60.48 
" clip-path="url(#p4b994fede8)" style="fill: none; stroke: #b0b0b0; stroke-width: 0.8; stroke-linecap: square"/>
     </g>
     <g id="line2d_6">
      <g>
       <use xlink:href="#m07bd816a76" x="299.609231" y="448.56" style="stroke: #000000; stroke-width: 0.8"/>
      </g>
     </g>
     <g id="text_3">
      <!-- 5.0 -->
      <g transform="translate(283.984231 472.919375)scale(0.25 -0.25)">
       <use xlink:href="#TimesNewRomanPSMT-35"/>
       <use xlink:href="#TimesNewRomanPSMT-2e" x="50"/>
       <use xlink:href="#TimesNewRomanPSMT-30" x="75"/>
      </g>
     </g>
    </g>
    <g id="xtick_4">
     <g id="line2d_7">
      <path d="M 380.195665 448.56 
L 380.195665 60.48 
" clip-path="url(#p4b994fede8)" style="fill: none; stroke: #b0b0b0; stroke-width: 0.8; stroke-linecap: square"/>
     </g>
     <g id="line2d_8">
      <g>
       <use xlink:href="#m07bd816a76" x="380.195665" y="448.56" style="stroke: #000000; stroke-width: 0.8"/>
      </g>
     </g>
     <g id="text_4">
      <!-- 7.5 -->
      <g transform="translate(364.570665 472.919375)scale(0.25 -0.25)">
       <defs>
        <path id="TimesNewRomanPSMT-37" d="M 644 4238 
L 2916 4238 
L 2916 4119 
L 1503 -88 
L 1153 -88 
L 2419 3728 
L 1253 3728 
Q 900 3728 750 3644 
Q 488 3500 328 3200 
L 238 3234 
L 644 4238 
z
" transform="scale(0.015625)"/>
       </defs>
       <use xlink:href="#TimesNewRomanPSMT-37"/>
       <use xlink:href="#TimesNewRomanPSMT-2e" x="50"/>
       <use xlink:href="#TimesNewRomanPSMT-35" x="75"/>
      </g>
     </g>
    </g>
    <g id="xtick_5">
     <g id="line2d_9">
      <path d="M 460.782098 448.56 
L 460.782098 60.48 
" clip-path="url(#p4b994fede8)" style="fill: none; stroke: #b0b0b0; stroke-width: 0.8; stroke-linecap: square"/>
     </g>
     <g id="line2d_10">
      <g>
       <use xlink:href="#m07bd816a76" x="460.782098" y="448.56" style="stroke: #000000; stroke-width: 0.8"/>
      </g>
     </g>
     <g id="text_5">
      <!-- 10.0 -->
      <g transform="translate(438.907098 472.919375)scale(0.25 -0.25)">
       <defs>
        <path id="TimesNewRomanPSMT-31" d="M 750 3822 
L 1781 4325 
L 1884 4325 
L 1884 747 
Q 1884 391 1914 303 
Q 1944 216 2037 169 
Q 2131 122 2419 116 
L 2419 0 
L 825 0 
L 825 116 
Q 1125 122 1212 167 
Q 1300 213 1334 289 
Q 1369 366 1369 747 
L 1369 3034 
Q 1369 3497 1338 3628 
Q 1316 3728 1258 3775 
Q 1200 3822 1119 3822 
Q 1003 3822 797 3725 
L 750 3822 
z
" transform="scale(0.015625)"/>
       </defs>
       <use xlink:href="#TimesNewRomanPSMT-31"/>
       <use xlink:href="#TimesNewRomanPSMT-30" x="50"/>
       <use xlink:href="#TimesNewRomanPSMT-2e" x="100"/>
       <use xlink:href="#TimesNewRomanPSMT-30" x="125"/>
      </g>
     </g>
    </g>
    <g id="xtick_6">
     <g id="line2d_11">
      <path d="M 541.368532 448.56 
L 541.368532 60.48 
" clip-path="url(#p4b994fede8)" style="fill: none; stroke: #b0b0b0; stroke-width: 0.8; stroke-linecap: square"/>
     </g>
     <g id="line2d_12">
      <g>
       <use xlink:href="#m07bd816a76" x="541.368532" y="448.56" style="stroke: #000000; stroke-width: 0.8"/>
      </g>
     </g>
     <g id="text_6">
      <!-- 12.5 -->
      <g transform="translate(519.493532 472.919375)scale(0.25 -0.25)">
       <use xlink:href="#TimesNewRomanPSMT-31"/>
       <use xlink:href="#TimesNewRomanPSMT-32" x="50"/>
       <use xlink:href="#TimesNewRomanPSMT-2e" x="100"/>
       <use xlink:href="#TimesNewRomanPSMT-35" x="125"/>
      </g>
     </g>
    </g>
    <g id="xtick_7">
     <g id="line2d_13">
      <path d="M 621.954966 448.56 
L 621.954966 60.48 
" clip-path="url(#p4b994fede8)" style="fill: none; stroke: #b0b0b0; stroke-width: 0.8; stroke-linecap: square"/>
     </g>
     <g id="line2d_14">
      <g>
       <use xlink:href="#m07bd816a76" x="621.954966" y="448.56" style="stroke: #000000; stroke-width: 0.8"/>
      </g>
     </g>
     <g id="text_7">
      <!-- 15.0 -->
      <g transform="translate(600.079966 472.919375)scale(0.25 -0.25)">
       <use xlink:href="#TimesNewRomanPSMT-31"/>
       <use xlink:href="#TimesNewRomanPSMT-35" x="50"/>
       <use xlink:href="#TimesNewRomanPSMT-2e" x="100"/>
       <use xlink:href="#TimesNewRomanPSMT-30" x="125"/>
      </g>
     </g>
    </g>
    <g id="xtick_8">
     <g id="line2d_15">
      <path d="M 702.541399 448.56 
L 702.541399 60.48 
" clip-path="url(#p4b994fede8)" style="fill: none; stroke: #b0b0b0; stroke-width: 0.8; stroke-linecap: square"/>
     </g>
     <g id="line2d_16">
      <g>
       <use xlink:href="#m07bd816a76" x="702.541399" y="448.56" style="stroke: #000000; stroke-width: 0.8"/>
      </g>
     </g>
     <g id="text_8">
      <!-- 17.5 -->
      <g transform="translate(680.666399 472.919375)scale(0.25 -0.25)">
       <use xlink:href="#TimesNewRomanPSMT-31"/>
       <use xlink:href="#TimesNewRomanPSMT-37" x="50"/>
       <use xlink:href="#TimesNewRomanPSMT-2e" x="100"/>
       <use xlink:href="#TimesNewRomanPSMT-35" x="125"/>
      </g>
     </g>
    </g>
   </g>
   <g id="matplotlib.axis_2">
    <g id="ytick_1">
     <g id="line2d_17">
      <path d="M 108 448.56 
L 777.6 448.56 
" clip-path="url(#p4b994fede8)" style="fill: none; stroke: #b0b0b0; stroke-width: 0.8; stroke-linecap: square"/>
     </g>
     <g id="line2d_18">
      <defs>
       <path id="md8a01437d2" d="M 0 0 
L -3.5 0 
" style="stroke: #000000; stroke-width: 0.8"/>
      </defs>
      <g>
       <use xlink:href="#md8a01437d2" x="108" y="448.56" style="stroke: #000000; stroke-width: 0.8"/>
      </g>
     </g>
     <g id="text_9">
      <!-- 0.075 -->
      <g transform="translate(44.75 457.239688)scale(0.25 -0.25)">
       <use xlink:href="#TimesNewRomanPSMT-30"/>
       <use xlink:href="#TimesNewRomanPSMT-2e" x="50"/>
       <use xlink:href="#TimesNewRomanPSMT-30" x="75"/>
       <use xlink:href="#TimesNewRomanPSMT-37" x="125"/>
       <use xlink:href="#TimesNewRomanPSMT-35" x="175"/>
      </g>
     </g>
    </g>
    <g id="ytick_2">
     <g id="line2d_19">
      <path d="M 108 393.12 
L 777.6 393.12 
" clip-path="url(#p4b994fede8)" style="fill: none; stroke: #b0b0b0; stroke-width: 0.8; stroke-linecap: square"/>
     </g>
     <g id="line2d_20">
      <g>
       <use xlink:href="#md8a01437d2" x="108" y="393.12" style="stroke: #000000; stroke-width: 0.8"/>
      </g>
     </g>
     <g id="text_10">
      <!-- 0.080 -->
      <g transform="translate(44.75 401.799688)scale(0.25 -0.25)">
       <defs>
        <path id="TimesNewRomanPSMT-38" d="M 1228 2134 
Q 725 2547 579 2797 
Q 434 3047 434 3316 
Q 434 3728 753 4026 
Q 1072 4325 1600 4325 
Q 2113 4325 2425 4047 
Q 2738 3769 2738 3413 
Q 2738 3175 2569 2928 
Q 2400 2681 1866 2347 
Q 2416 1922 2594 1678 
Q 2831 1359 2831 1006 
Q 2831 559 2490 242 
Q 2150 -75 1597 -75 
Q 994 -75 656 303 
Q 388 606 388 966 
Q 388 1247 577 1523 
Q 766 1800 1228 2134 
z
M 1719 2469 
Q 2094 2806 2194 3001 
Q 2294 3197 2294 3444 
Q 2294 3772 2109 3958 
Q 1925 4144 1606 4144 
Q 1288 4144 1088 3959 
Q 888 3775 888 3528 
Q 888 3366 970 3203 
Q 1053 3041 1206 2894 
L 1719 2469 
z
M 1375 2016 
Q 1116 1797 991 1539 
Q 866 1281 866 981 
Q 866 578 1086 336 
Q 1306 94 1647 94 
Q 1984 94 2187 284 
Q 2391 475 2391 747 
Q 2391 972 2272 1150 
Q 2050 1481 1375 2016 
z
" transform="scale(0.015625)"/>
       </defs>
       <use xlink:href="#TimesNewRomanPSMT-30"/>
       <use xlink:href="#TimesNewRomanPSMT-2e" x="50"/>
       <use xlink:href="#TimesNewRomanPSMT-30" x="75"/>
       <use xlink:href="#TimesNewRomanPSMT-38" x="125"/>
       <use xlink:href="#TimesNewRomanPSMT-30" x="175"/>
      </g>
     </g>
    </g>
    <g id="ytick_3">
     <g id="line2d_21">
      <path d="M 108 337.68 
L 777.6 337.68 
" clip-path="url(#p4b994fede8)" style="fill: none; stroke: #b0b0b0; stroke-width: 0.8; stroke-linecap: square"/>
     </g>
     <g id="line2d_22">
      <g>
       <use xlink:href="#md8a01437d2" x="108" y="337.68" style="stroke: #000000; stroke-width: 0.8"/>
      </g>
     </g>
     <g id="text_11">
      <!-- 0.085 -->
      <g transform="translate(44.75 346.359688)scale(0.25 -0.25)">
       <use xlink:href="#TimesNewRomanPSMT-30"/>
       <use xlink:href="#TimesNewRomanPSMT-2e" x="50"/>
       <use xlink:href="#TimesNewRomanPSMT-30" x="75"/>
       <use xlink:href="#TimesNewRomanPSMT-38" x="125"/>
       <use xlink:href="#TimesNewRomanPSMT-35" x="175"/>
      </g>
     </g>
    </g>
    <g id="ytick_4">
     <g id="line2d_23">
      <path d="M 108 282.24 
L 777.6 282.24 
" clip-path="url(#p4b994fede8)" style="fill: none; stroke: #b0b0b0; stroke-width: 0.8; stroke-linecap: square"/>
     </g>
     <g id="line2d_24">
      <g>
       <use xlink:href="#md8a01437d2" x="108" y="282.24" style="stroke: #000000; stroke-width: 0.8"/>
      </g>
     </g>
     <g id="text_12">
      <!-- 0.090 -->
      <g transform="translate(44.75 290.919688)scale(0.25 -0.25)">
       <defs>
        <path id="TimesNewRomanPSMT-39" d="M 338 -88 
L 338 28 
Q 744 34 1094 217 
Q 1444 400 1770 856 
Q 2097 1313 2225 1859 
Q 1734 1544 1338 1544 
Q 891 1544 572 1889 
Q 253 2234 253 2806 
Q 253 3363 572 3797 
Q 956 4325 1575 4325 
Q 2097 4325 2469 3894 
Q 2925 3359 2925 2575 
Q 2925 1869 2578 1258 
Q 2231 647 1613 244 
Q 1109 -88 516 -88 
L 338 -88 
z
M 2275 2091 
Q 2331 2497 2331 2741 
Q 2331 3044 2228 3395 
Q 2125 3747 1936 3934 
Q 1747 4122 1506 4122 
Q 1228 4122 1018 3872 
Q 809 3622 809 3128 
Q 809 2469 1088 2097 
Q 1291 1828 1588 1828 
Q 1731 1828 1928 1897 
Q 2125 1966 2275 2091 
z
" transform="scale(0.015625)"/>
       </defs>
       <use xlink:href="#TimesNewRomanPSMT-30"/>
       <use xlink:href="#TimesNewRomanPSMT-2e" x="50"/>
       <use xlink:href="#TimesNewRomanPSMT-30" x="75"/>
       <use xlink:href="#TimesNewRomanPSMT-39" x="125"/>
       <use xlink:href="#TimesNewRomanPSMT-30" x="175"/>
      </g>
     </g>
    </g>
    <g id="ytick_5">
     <g id="line2d_25">
      <path d="M 108 226.8 
L 777.6 226.8 
" clip-path="url(#p4b994fede8)" style="fill: none; stroke: #b0b0b0; stroke-width: 0.8; stroke-linecap: square"/>
     </g>
     <g id="line2d_26">
      <g>
       <use xlink:href="#md8a01437d2" x="108" y="226.8" style="stroke: #000000; stroke-width: 0.8"/>
      </g>
     </g>
     <g id="text_13">
      <!-- 0.095 -->
      <g transform="translate(44.75 235.479688)scale(0.25 -0.25)">
       <use xlink:href="#TimesNewRomanPSMT-30"/>
       <use xlink:href="#TimesNewRomanPSMT-2e" x="50"/>
       <use xlink:href="#TimesNewRomanPSMT-30" x="75"/>
       <use xlink:href="#TimesNewRomanPSMT-39" x="125"/>
       <use xlink:href="#TimesNewRomanPSMT-35" x="175"/>
      </g>
     </g>
    </g>
    <g id="ytick_6">
     <g id="line2d_27">
      <path d="M 108 171.36 
L 777.6 171.36 
" clip-path="url(#p4b994fede8)" style="fill: none; stroke: #b0b0b0; stroke-width: 0.8; stroke-linecap: square"/>
     </g>
     <g id="line2d_28">
      <g>
       <use xlink:href="#md8a01437d2" x="108" y="171.36" style="stroke: #000000; stroke-width: 0.8"/>
      </g>
     </g>
     <g id="text_14">
      <!-- 0.100 -->
      <g transform="translate(44.75 180.039688)scale(0.25 -0.25)">
       <use xlink:href="#TimesNewRomanPSMT-30"/>
       <use xlink:href="#TimesNewRomanPSMT-2e" x="50"/>
       <use xlink:href="#TimesNewRomanPSMT-31" x="75"/>
       <use xlink:href="#TimesNewRomanPSMT-30" x="125"/>
       <use xlink:href="#TimesNewRomanPSMT-30" x="175"/>
      </g>
     </g>
    </g>
    <g id="ytick_7">
     <g id="line2d_29">
      <path d="M 108 115.92 
L 777.6 115.92 
" clip-path="url(#p4b994fede8)" style="fill: none; stroke: #b0b0b0; stroke-width: 0.8; stroke-linecap: square"/>
     </g>
     <g id="line2d_30">
      <g>
       <use xlink:href="#md8a01437d2" x="108" y="115.92" style="stroke: #000000; stroke-width: 0.8"/>
      </g>
     </g>
     <g id="text_15">
      <!-- 0.105 -->
      <g transform="translate(44.75 124.599688)scale(0.25 -0.25)">
       <use xlink:href="#TimesNewRomanPSMT-30"/>
       <use xlink:href="#TimesNewRomanPSMT-2e" x="50"/>
       <use xlink:href="#TimesNewRomanPSMT-31" x="75"/>
       <use xlink:href="#TimesNewRomanPSMT-30" x="125"/>
       <use xlink:href="#TimesNewRomanPSMT-35" x="175"/>
      </g>
     </g>
    </g>
    <g id="ytick_8">
     <g id="line2d_31">
      <path d="M 108 60.48 
L 777.6 60.48 
" clip-path="url(#p4b994fede8)" style="fill: none; stroke: #b0b0b0; stroke-width: 0.8; stroke-linecap: square"/>
     </g>
     <g id="line2d_32">
      <g>
       <use xlink:href="#md8a01437d2" x="108" y="60.48" style="stroke: #000000; stroke-width: 0.8"/>
      </g>
     </g>
     <g id="text_16">
      <!-- 0.110 -->
      <g transform="translate(45.6875 69.159688)scale(0.25 -0.25)">
       <use xlink:href="#TimesNewRomanPSMT-30"/>
       <use xlink:href="#TimesNewRomanPSMT-2e" x="50"/>
       <use xlink:href="#TimesNewRomanPSMT-31" x="75"/>
       <use xlink:href="#TimesNewRomanPSMT-31" x="121.25"/>
       <use xlink:href="#TimesNewRomanPSMT-30" x="171.25"/>
      </g>
     </g>
    </g>
   </g>
   <g id="line2d_33">
    <path d="M 138.436364 147.311236 
L 140.468246 223.826262 
L 142.538687 284.848688 
L 144.544955 330.368123 
L 146.567884 360.710893 
L 148.633594 382.040385 
L 150.717629 396.419007 
L 152.723446 406.845282 
L 154.783497 414.644721 
L 156.818012 418.997991 
L 158.84237 421.82421 
L 162.89816 423.370337 
L 164.894269 422.660517 
L 166.91597 421.74121 
L 168.990652 420.153754 
L 171.039587 419.015817 
L 173.057685 416.811364 
L 175.107942 415.634028 
L 177.103359 413.169219 
L 179.095261 411.766555 
L 181.061526 409.097197 
L 183.079551 407.72184 
L 185.085544 405.203041 
L 187.096463 403.811561 
L 189.094714 401.286744 
L 191.149405 399.950276 
L 193.149683 397.080059 
L 195.177602 395.212036 
L 197.191083 392.202727 
L 199.244784 390.152864 
L 201.247321 387.367123 
L 203.237562 384.843895 
L 205.247653 381.731886 
L 207.267421 379.140418 
L 209.344944 376.102156 
L 211.391927 373.80454 
L 213.454044 370.880843 
L 217.441882 366.374743 
L 219.475232 364.386193 
L 221.52077 362.225738 
L 223.553556 360.891144 
L 225.587079 359.105384 
L 227.631941 358.464826 
L 229.654037 356.961506 
L 231.696696 356.153755 
L 233.748483 354.670362 
L 237.769247 353.275192 
L 239.719467 353.83519 
L 241.734739 354.05467 
L 243.754287 354.885811 
L 245.766616 354.421531 
L 247.791951 355.022461 
L 253.912431 355.925759 
L 255.909926 355.832596 
L 257.963423 355.549702 
L 260.004796 355.5107 
L 261.984419 354.752624 
L 266.075324 353.974906 
L 272.142364 351.392863 
L 274.16431 350.29813 
L 276.203126 349.856388 
L 278.221739 348.531785 
L 280.237644 347.812485 
L 282.240748 346.46824 
L 284.269753 346.363041 
L 286.39173 345.447935 
L 288.460346 345.432266 
L 290.543611 344.71501 
L 292.535407 344.720516 
L 294.496304 344.04459 
L 296.533088 343.641566 
L 298.579754 342.606955 
L 300.627565 342.978811 
L 302.67099 342.423241 
L 304.697647 342.600937 
L 306.746609 342.026178 
L 308.77275 342.366469 
L 310.77343 342.225448 
L 312.768449 343.194658 
L 314.820425 342.160501 
L 316.845054 342.834383 
L 318.839669 341.552019 
L 320.841173 341.58631 
L 322.882761 340.860424 
L 324.89218 341.487356 
L 326.95082 340.879329 
L 328.982324 341.553211 
L 331.001485 340.702144 
L 333.060416 340.954041 
L 335.12608 339.74179 
L 337.189843 339.50789 
L 339.181114 338.699287 
L 341.20699 338.670618 
L 343.207821 337.786736 
L 345.274767 338.055437 
L 347.337045 337.267784 
L 349.386903 338.06401 
L 351.42333 338.197878 
L 353.477789 338.701558 
L 355.562579 338.717511 
L 357.561034 339.183665 
L 359.653557 338.817089 
L 361.694124 339.120138 
L 363.718775 338.549296 
L 365.752149 338.559345 
L 367.740069 338.375347 
L 369.783068 338.442962 
L 371.816087 338.253969 
L 373.867711 338.688444 
L 375.979659 338.481056 
L 378.074622 338.726935 
L 382.139392 338.658241 
L 388.342699 338.77241 
L 392.446598 339.089197 
L 394.473686 339.57999 
L 396.453416 339.670882 
L 402.474313 340.545453 
L 404.454074 340.478917 
L 406.465003 340.816993 
L 408.537748 340.881429 
L 412.64627 341.520454 
L 420.780153 341.881637 
L 430.947758 343.391997 
L 432.938034 343.497593 
L 457.303627 346.657063 
L 463.337087 347.279737 
L 469.362209 348.208753 
L 471.391047 348.335354 
L 477.463992 348.981759 
L 479.541344 349.146739 
L 485.604089 349.876769 
L 491.663323 350.415818 
L 501.768366 351.524573 
L 503.7596 351.689325 
L 509.853524 352.4956 
L 513.877992 352.970327 
L 519.950994 353.665669 
L 538.233929 356.00348 
L 544.273451 356.750996 
L 550.434827 357.49397 
L 590.979183 361.514727 
L 615.318151 363.346416 
L 633.509504 364.471351 
L 653.770257 365.562905 
L 678.18169 366.627435 
L 704.673174 367.461017 
L 747.163636 368.663673 
L 747.163636 368.663673 
" clip-path="url(#p4b994fede8)" style="fill: none; stroke: #1f77b4; stroke-width: 2; stroke-linecap: square"/>
   </g>
   <g id="line2d_34">
    <path d="M 138.436364 147.311236 
L 139.267808 284.394058 
L 139.681202 329.923145 
L 140.098747 360.199889 
L 140.514617 381.863483 
L 140.924438 396.328285 
L 141.34089 406.88911 
L 141.765533 414.432734 
L 142.174045 419.003328 
L 142.585937 421.779758 
L 143.419123 423.259745 
L 144.253943 422.182555 
L 144.680404 420.717328 
L 145.088726 419.743236 
L 145.500864 417.532878 
L 145.915374 416.235016 
L 146.329863 413.773783 
L 146.743121 412.37356 
L 147.15406 410.161045 
L 147.574418 408.876297 
L 147.999003 406.496362 
L 148.404929 405.218653 
L 148.828157 402.894525 
L 149.248114 401.452802 
L 149.663153 398.995373 
L 150.077023 397.581128 
L 150.499647 394.893943 
L 150.911033 393.11613 
L 152.141591 385.095168 
L 152.564779 382.905929 
L 153.38259 377.53928 
L 153.795462 374.447368 
L 155.452276 365.510788 
L 155.874621 364.321587 
L 156.286966 362.577497 
L 156.702459 361.728643 
L 157.518601 359.305902 
L 157.926208 358.334932 
L 158.350277 358.090926 
L 158.766379 357.495843 
L 159.170807 358.234559 
L 159.577191 358.4973 
L 159.990267 359.283193 
L 160.394056 358.758734 
L 160.806109 359.74526 
L 161.228454 359.926135 
L 161.6392 361.524832 
L 162.870996 364.376826 
L 163.294422 365.132914 
L 163.723803 365.324009 
L 164.123842 365.691096 
L 164.539222 365.254974 
L 164.944394 365.553083 
L 165.365303 364.931374 
L 165.77198 364.843491 
L 166.613789 364.032561 
L 167.434909 362.6513 
L 167.842069 362.468268 
L 168.664551 361.537436 
L 169.471766 361.16751 
L 169.886718 360.804283 
L 170.289852 360.034967 
L 170.713033 359.57835 
L 171.11082 358.829926 
L 171.532777 358.410212 
L 171.947004 357.808713 
L 172.35098 357.750181 
L 173.181405 357.396265 
L 174.000632 356.479342 
L 174.403756 356.592148 
L 175.220895 355.730918 
L 175.635382 355.793481 
L 176.053138 355.444787 
L 176.471989 354.738375 
L 176.890268 354.681432 
L 177.714941 353.754517 
L 178.138284 353.628881 
L 178.546785 353.974338 
L 178.955551 353.728289 
L 179.378701 353.624623 
L 179.803635 353.022841 
L 180.638403 352.264652 
L 181.050895 351.660826 
L 181.453883 351.529456 
L 181.863853 351.041444 
L 182.281635 350.885265 
L 182.700361 351.014762 
L 183.115933 350.840188 
L 183.53299 350.960828 
L 183.944115 350.902296 
L 184.361346 350.717504 
L 184.792286 350.846603 
L 185.212353 351.343357 
L 186.466431 352.164677 
L 187.288675 352.073047 
L 187.700485 352.359348 
L 188.117662 352.434741 
L 188.534101 352.705656 
L 189.358916 352.924909 
L 190.188709 353.306644 
L 191.008188 353.655904 
L 191.413796 353.68236 
L 192.246696 354.194216 
L 192.664364 354.329787 
L 193.082918 354.282326 
L 193.509664 354.431011 
L 193.92537 354.351077 
L 194.75152 354.810759 
L 195.982303 355.935921 
L 196.406056 356.023747 
L 196.813267 356.342181 
L 198.473458 356.989211 
L 203.084766 359.670321 
L 203.501455 359.818893 
L 204.328157 360.386271 
L 204.734285 360.543473 
L 205.160646 360.579466 
L 206.410491 361.105288 
L 208.469872 361.754475 
L 209.304253 362.164311 
L 210.145276 362.54139 
L 211.406823 363.256035 
L 214.716088 365.190595 
L 216.362948 366.155093 
L 218.42501 367.331918 
L 225.486529 370.553496 
L 228.798363 371.822689 
L 232.525026 373.181014 
L 237.486784 374.714253 
L 241.230645 375.67103 
L 247.451265 377.030717 
L 259.925931 379.257255 
L 262.829507 379.684464 
L 262.829507 379.684464 
" clip-path="url(#p4b994fede8)" style="fill: none; stroke: #ff7f0e; stroke-width: 2; stroke-linecap: square"/>
   </g>
   <g id="line2d_35">
    <path d="M 138.436364 147.311236 
L 138.743823 128.877624 
L 139.047807 127.719363 
L 139.355653 128.261989 
L 139.656771 127.347166 
L 139.960894 130.032818 
L 140.259845 128.477041 
L 140.570337 131.543633 
L 140.872496 130.161918 
L 141.181604 132.989272 
L 141.486298 131.373317 
L 141.792145 134.345667 
L 142.097592 132.790344 
L 142.405855 135.251747 
L 142.70432 133.62262 
L 143.007432 136.117973 
L 143.313789 134.052497 
L 143.620414 136.507541 
L 143.933019 134.709689 
L 144.228733 137.244441 
L 144.53734 135.497228 
L 144.845025 138.091478 
L 145.154412 136.343357 
L 145.470409 138.980299 
L 145.776319 137.173589 
L 146.095799 139.789866 
L 146.399446 138.009272 
L 146.708182 140.75022 
L 146.998457 139.129155 
L 147.304778 141.998407 
L 147.611518 140.528355 
L 147.929598 143.504453 
L 148.239454 142.087766 
L 148.547209 145.065567 
L 148.858947 143.629124 
L 149.16265 146.64814 
L 149.467173 145.177748 
L 149.771101 148.477331 
L 150.078946 147.106403 
L 150.390713 150.716189 
L 150.701014 149.496047 
L 151.017277 153.055645 
L 151.324962 152.065998 
L 151.63075 155.932619 
L 151.953588 154.98044 
L 152.253227 159.353013 
L 152.552918 158.441029 
L 152.868766 162.753764 
L 153.168831 162.146418 
L 153.480384 166.450638 
L 153.78879 165.892229 
L 154.087946 170.134567 
L 154.39491 169.6704 
L 154.697943 173.950548 
L 154.997938 173.771716 
L 155.310838 178.044825 
L 155.621075 177.893811 
L 155.937017 181.938696 
L 156.234682 181.592274 
L 156.541789 185.445838 
L 156.839642 184.607658 
L 157.147583 188.384579 
L 157.449834 187.661532 
L 157.748447 191.50817 
L 158.053858 191.17367 
L 158.366233 194.934468 
L 158.676849 194.79481 
L 158.976729 198.272884 
L 159.279453 198.160476 
L 159.591614 201.470732 
L 159.900375 201.308137 
L 160.209766 204.559238 
L 160.518981 204.283667 
L 160.826632 207.187096 
L 161.127695 206.993277 
L 161.438039 209.88626 
L 161.745434 209.6309 
L 162.046793 212.441109 
L 162.34407 212.224695 
L 162.654296 215.239511 
L 162.965233 215.324668 
L 163.271919 218.484252 
L 163.581475 218.40375 
L 163.882388 221.430828 
L 164.190795 221.156279 
L 164.492416 224.065158 
L 164.796253 223.697617 
L 165.104247 226.298906 
L 165.410597 226.197625 
L 165.716421 229.084363 
L 166.016353 229.162141 
L 166.327035 231.979049 
L 166.642342 232.190922 
L 166.956224 235.028723 
L 167.276801 235.140791 
L 167.576966 238.036158 
L 167.883455 238.024236 
L 168.196154 240.776652 
L 168.498033 240.585671 
L 168.815156 243.181964 
L 169.127044 242.662615 
L 169.424425 244.927701 
L 169.740786 244.616477 
L 170.043173 246.813777 
L 170.33344 246.680931 
L 170.626979 249.006536 
L 170.937027 248.697696 
L 171.236316 250.77305 
L 171.544798 250.328753 
L 171.860672 252.566702 
L 172.166669 252.26865 
L 172.472123 254.336396 
L 172.768304 253.643552 
L 173.067014 255.377252 
L 173.355469 254.68736 
L 173.665094 256.130162 
L 173.974626 255.851639 
L 174.285206 257.43637 
L 174.575442 257.29603 
L 174.883215 259.075602 
L 175.189598 259.206631 
L 175.495755 261.020608 
L 175.802776 261.054671 
L 176.107451 262.34907 
L 176.415121 262.024903 
L 176.734634 263.16545 
L 177.037969 262.82005 
L 177.342234 263.994093 
L 177.648903 263.487688 
L 177.953702 264.797075 
L 178.256392 264.642088 
L 178.572659 265.734039 
L 178.878224 265.228315 
L 179.187905 266.387484 
L 179.490969 266.25986 
L 179.798124 267.61705 
L 180.106972 267.436515 
L 180.418756 267.986521 
L 180.730083 267.66224 
L 181.0424 268.382108 
L 181.350093 267.660083 
L 181.650213 268.397323 
L 181.961483 268.128792 
L 182.269719 268.702529 
L 182.573406 268.944377 
L 182.880284 270.070618 
L 183.185501 269.793912 
L 183.499903 270.551703 
L 183.810702 270.127958 
L 184.109619 270.737461 
L 184.424481 270.241275 
L 184.732085 270.552839 
L 185.032341 270.338809 
L 185.347085 270.578727 
L 185.653293 270.439295 
L 186.246652 270.769935 
L 186.553537 271.31063 
L 186.847871 271.346169 
L 187.149758 271.668975 
L 187.452087 271.699291 
L 188.077665 272.030271 
L 188.69432 272.819628 
L 189.310849 273.593656 
L 189.605296 273.718668 
L 190.5218 275.112759 
L 190.827068 275.0452 
L 191.143551 275.600657 
L 192.381938 276.453484 
L 193.896646 278.730492 
L 194.206987 279.019802 
L 195.136105 280.288768 
L 196.056747 281.231181 
L 196.370605 281.676273 
L 196.684719 281.709428 
L 197.614868 282.531599 
L 197.918732 282.548517 
L 198.229922 282.886196 
L 198.549938 283.053333 
L 198.855022 283.36308 
L 199.159895 283.421896 
L 200.097615 284.242136 
L 200.397376 284.274837 
L 200.707753 284.589353 
L 201.009677 284.67224 
L 201.315275 285.082247 
L 201.616752 285.128232 
L 201.925923 285.413341 
L 202.233406 285.51326 
L 202.543397 285.847646 
L 203.469708 286.345422 
L 204.395544 287.139548 
L 205.345335 287.851695 
L 205.654301 288.167687 
L 205.962818 288.311206 
L 206.272705 288.685106 
L 206.579598 288.858828 
L 206.890021 289.24465 
L 207.191047 289.425185 
L 207.805326 290.064437 
L 208.738313 290.92033 
L 209.674568 291.531877 
L 212.764501 292.28138 
L 214.910146 292.851029 
L 221.682286 295.359894 
L 225.073916 296.001643 
L 226.567688 296.078626 
L 228.434125 295.865958 
L 230.560107 295.278256 
L 230.560107 295.278256 
" clip-path="url(#p4b994fede8)" style="fill: none; stroke: #a7a7a7; stroke-width: 2; stroke-linecap: square"/>
   </g>
   <g id="line2d_36">
    <path d="M 138.436364 147.311236 
L 138.784305 261.939972 
L 139.09424 333.678436 
L 139.550325 380.680811 
L 139.845403 394.306297 
L 140.154709 399.682086 
L 140.305881 400.929024 
L 140.457778 401.111092 
L 140.610496 400.706989 
L 142.458814 381.886192 
L 143.066297 373.192028 
L 143.225473 372.164456 
L 143.685639 365.3034 
L 143.991246 362.519306 
L 144.296455 359.732827 
L 144.908351 356.67759 
L 145.221805 356.189408 
L 145.370635 357.496638 
L 145.529854 357.573621 
L 145.681481 357.853336 
L 145.831639 357.379631 
L 145.981327 358.428946 
L 146.128567 358.261185 
L 146.4383 357.473589 
L 146.59247 357.42749 
L 146.747975 357.652761 
L 147.05158 356.860168 
L 147.201763 357.434757 
L 147.80372 357.410118 
L 147.955902 356.683607 
L 148.106915 356.819349 
L 148.565083 356.477696 
L 148.718156 356.846259 
L 148.870627 356.89883 
L 149.018586 356.748271 
L 149.627582 357.074823 
L 149.939465 356.732488 
L 150.090415 356.876859 
L 150.699137 355.114602 
L 150.85247 355.126411 
L 151.001155 354.998731 
L 151.466759 353.32782 
L 151.780525 353.607762 
L 152.085848 353.25061 
L 152.530689 352.074239 
L 152.686722 351.853964 
L 153.146117 350.306305 
L 153.297316 350.849215 
L 153.606293 351.062791 
L 153.757662 350.998411 
L 154.06012 349.428157 
L 154.208712 349.70509 
L 154.518042 349.497362 
L 154.673455 349.952729 
L 154.821743 349.93337 
L 155.125912 350.419962 
L 155.274876 350.207692 
L 155.425083 350.7225 
L 155.575312 350.68134 
L 155.727765 351.478758 
L 155.885796 351.256269 
L 156.360646 352.888008 
L 156.51488 352.748916 
L 156.663089 353.039816 
L 156.812378 352.896978 
L 157.108793 353.43245 
L 157.260759 353.488257 
L 157.41386 353.833941 
L 157.564738 353.868402 
L 157.714862 353.657267 
L 157.863975 353.644664 
L 158.169646 354.294134 
L 158.321427 354.117574 
L 158.472661 353.768597 
L 158.625552 353.831386 
L 159.547755 355.522395 
L 159.858908 356.348767 
L 160.017973 356.315214 
L 160.476993 356.585449 
L 161.392143 358.371039 
L 161.549825 358.485718 
L 161.853733 358.168931 
L 162.005572 358.368257 
L 162.75507 360.648274 
L 163.207536 361.250964 
L 163.505114 361.751352 
L 163.65517 361.824361 
L 164.434127 363.200682 
L 164.890043 364.009512 
L 165.187605 364.368651 
L 165.95528 365.923293 
L 166.267237 366.475059 
L 166.726523 367.576604 
L 167.339424 369.035302 
L 167.804963 369.702883 
L 168.265234 370.482077 
L 168.721509 371.110656 
L 168.876664 371.203762 
L 169.32761 371.81247 
L 170.087068 372.654171 
L 170.391659 372.964372 
L 171.014994 374.102536 
L 174.043104 377.69211 
L 174.196985 377.801453 
L 174.967999 378.895448 
L 175.429558 379.213484 
L 176.200374 380.028445 
L 176.963107 380.367998 
L 177.269232 380.523212 
L 177.868329 380.877242 
L 178.173179 381.064532 
L 178.475546 381.284637 
L 178.927901 381.785479 
L 180.052043 382.514998 
L 180.642893 382.563822 
L 182.116329 382.522492 
L 183.614007 382.797268 
L 185.296792 383.145393 
L 189.102902 383.858221 
L 191.48931 384.232064 
L 191.48931 384.232064 
" clip-path="url(#p4b994fede8)" style="fill: none; stroke: #2ca02c; stroke-width: 2; stroke-linecap: square"/>
   </g>
   <g id="line2d_37">
    <path d="M 138.436364 147.311236 
L 138.639453 381.012586 
L 138.791312 402.011381 
L 138.857193 401.138456 
L 139.135126 387.416003 
L 139.589445 359.187078 
L 139.806677 352.695437 
L 139.83311 353.251632 
L 139.864685 352.847813 
L 139.896873 353.364721 
L 139.92893 353.254924 
L 139.95449 353.725053 
L 140.022794 353.407698 
L 140.08207 352.436728 
L 140.137808 353.243286 
L 140.22798 354.155611 
L 140.259734 353.717729 
L 140.381798 352.97941 
L 140.509464 351.654695 
L 140.786437 353.99716 
L 140.836119 353.830024 
L 140.864708 353.53146 
L 140.896142 353.90905 
L 140.930172 354.157144 
L 141.124937 351.572375 
L 141.159507 351.482676 
L 141.315984 352.597108 
L 141.851183 358.42537 
L 141.879456 358.657907 
L 141.910658 358.41305 
L 142.028096 357.725769 
L 142.060009 357.79066 
L 142.092603 357.73701 
L 142.121187 357.506176 
L 142.149834 358.270212 
L 142.243821 358.193002 
L 142.276247 358.059134 
L 142.307341 358.232402 
L 142.47486 360.630447 
L 142.504446 360.621591 
L 142.717208 361.973728 
L 142.745943 361.815277 
L 142.782784 361.992349 
L 143.364726 367.285592 
L 143.477768 368.186448 
L 143.506796 368.156586 
L 143.628855 368.606333 
L 143.916243 370.840308 
L 144.009503 370.736188 
L 144.038514 370.68691 
L 144.069618 370.831111 
L 144.093765 370.805564 
L 144.213473 371.507265 
L 144.512368 372.80314 
L 144.603526 373.349343 
L 144.865553 374.501699 
L 144.987285 374.688706 
L 146.538015 379.071497 
L 146.599711 379.047937 
L 146.72457 379.13389 
L 147.2812 380.203132 
L 147.469905 380.527527 
L 147.469905 380.527527 
" clip-path="url(#p4b994fede8)" style="fill: none; stroke: #d62728; stroke-width: 2; stroke-linecap: square"/>
   </g>
   <g id="patch_3">
    <path d="M 108 448.56 
L 108 60.48 
" style="fill: none; stroke: #aaaaaa; stroke-width: 0.8; stroke-linejoin: miter; stroke-linecap: square"/>
   </g>
   <g id="patch_4">
    <path d="M 777.6 448.56 
L 777.6 60.48 
" style="fill: none; stroke: #aaaaaa; stroke-width: 0.8; stroke-linejoin: miter; stroke-linecap: square"/>
   </g>
   <g id="patch_5">
    <path d="M 108 448.56 
L 777.6 448.56 
" style="fill: none; stroke: #aaaaaa; stroke-width: 0.8; stroke-linejoin: miter; stroke-linecap: square"/>
   </g>
   <g id="patch_6">
    <path d="M 108 60.48 
L 777.6 60.48 
" style="fill: none; stroke: #aaaaaa; stroke-width: 0.8; stroke-linejoin: miter; stroke-linecap: square"/>
   </g>
  </g>
  <g id="axes_2">
   <g id="matplotlib.axis_3">
    <g id="ytick_9">
     <g id="line2d_38">
      <defs>
       <path id="me0679a2f32" d="M 0 0 
L 3.5 0 
" style="stroke: #000000; stroke-width: 0.8"/>
      </defs>
      <g>
       <use xlink:href="#me0679a2f32" x="777.6" y="448.56" style="stroke: #000000; stroke-width: 0.8"/>
      </g>
     </g>
     <g id="text_17">
      <!-- 0.0 -->
      <g transform="translate(784.6 457.239688)scale(0.25 -0.25)">
       <use xlink:href="#TimesNewRomanPSMT-30"/>
       <use xlink:href="#TimesNewRomanPSMT-2e" x="50"/>
       <use xlink:href="#TimesNewRomanPSMT-30" x="75"/>
      </g>
     </g>
    </g>
    <g id="ytick_10">
     <g id="line2d_39">
      <g>
       <use xlink:href="#me0679a2f32" x="777.6" y="393.12" style="stroke: #000000; stroke-width: 0.8"/>
      </g>
     </g>
     <g id="text_18">
      <!-- 0.1 -->
      <g transform="translate(784.6 401.799688)scale(0.25 -0.25)">
       <use xlink:href="#TimesNewRomanPSMT-30"/>
       <use xlink:href="#TimesNewRomanPSMT-2e" x="50"/>
       <use xlink:href="#TimesNewRomanPSMT-31" x="75"/>
      </g>
     </g>
    </g>
    <g id="ytick_11">
     <g id="line2d_40">
      <g>
       <use xlink:href="#me0679a2f32" x="777.6" y="337.68" style="stroke: #000000; stroke-width: 0.8"/>
      </g>
     </g>
     <g id="text_19">
      <!-- 0.2 -->
      <g transform="translate(784.6 346.359688)scale(0.25 -0.25)">
       <use xlink:href="#TimesNewRomanPSMT-30"/>
       <use xlink:href="#TimesNewRomanPSMT-2e" x="50"/>
       <use xlink:href="#TimesNewRomanPSMT-32" x="75"/>
      </g>
     </g>
    </g>
    <g id="ytick_12">
     <g id="line2d_41">
      <g>
       <use xlink:href="#me0679a2f32" x="777.6" y="282.24" style="stroke: #000000; stroke-width: 0.8"/>
      </g>
     </g>
     <g id="text_20">
      <!-- 0.3 -->
      <g transform="translate(784.6 290.919688)scale(0.25 -0.25)">
       <defs>
        <path id="TimesNewRomanPSMT-33" d="M 325 3431 
Q 506 3859 782 4092 
Q 1059 4325 1472 4325 
Q 1981 4325 2253 3994 
Q 2459 3747 2459 3466 
Q 2459 3003 1878 2509 
Q 2269 2356 2469 2072 
Q 2669 1788 2669 1403 
Q 2669 853 2319 450 
Q 1863 -75 997 -75 
Q 569 -75 414 31 
Q 259 138 259 259 
Q 259 350 332 419 
Q 406 488 509 488 
Q 588 488 669 463 
Q 722 447 909 348 
Q 1097 250 1169 231 
Q 1284 197 1416 197 
Q 1734 197 1970 444 
Q 2206 691 2206 1028 
Q 2206 1275 2097 1509 
Q 2016 1684 1919 1775 
Q 1784 1900 1550 2001 
Q 1316 2103 1072 2103 
L 972 2103 
L 972 2197 
Q 1219 2228 1467 2375 
Q 1716 2522 1828 2728 
Q 1941 2934 1941 3181 
Q 1941 3503 1739 3701 
Q 1538 3900 1238 3900 
Q 753 3900 428 3381 
L 325 3431 
z
" transform="scale(0.015625)"/>
       </defs>
       <use xlink:href="#TimesNewRomanPSMT-30"/>
       <use xlink:href="#TimesNewRomanPSMT-2e" x="50"/>
       <use xlink:href="#TimesNewRomanPSMT-33" x="75"/>
      </g>
     </g>
    </g>
    <g id="ytick_13">
     <g id="line2d_42">
      <g>
       <use xlink:href="#me0679a2f32" x="777.6" y="226.8" style="stroke: #000000; stroke-width: 0.8"/>
      </g>
     </g>
     <g id="text_21">
      <!-- 0.4 -->
      <g transform="translate(784.6 235.479688)scale(0.25 -0.25)">
       <defs>
        <path id="TimesNewRomanPSMT-34" d="M 2978 1563 
L 2978 1119 
L 2409 1119 
L 2409 0 
L 1894 0 
L 1894 1119 
L 100 1119 
L 100 1519 
L 2066 4325 
L 2409 4325 
L 2409 1563 
L 2978 1563 
z
M 1894 1563 
L 1894 3666 
L 406 1563 
L 1894 1563 
z
" transform="scale(0.015625)"/>
       </defs>
       <use xlink:href="#TimesNewRomanPSMT-30"/>
       <use xlink:href="#TimesNewRomanPSMT-2e" x="50"/>
       <use xlink:href="#TimesNewRomanPSMT-34" x="75"/>
      </g>
     </g>
    </g>
    <g id="ytick_14">
     <g id="line2d_43">
      <g>
       <use xlink:href="#me0679a2f32" x="777.6" y="171.36" style="stroke: #000000; stroke-width: 0.8"/>
      </g>
     </g>
     <g id="text_22">
      <!-- 0.5 -->
      <g transform="translate(784.6 180.039688)scale(0.25 -0.25)">
       <use xlink:href="#TimesNewRomanPSMT-30"/>
       <use xlink:href="#TimesNewRomanPSMT-2e" x="50"/>
       <use xlink:href="#TimesNewRomanPSMT-35" x="75"/>
      </g>
     </g>
    </g>
    <g id="ytick_15">
     <g id="line2d_44">
      <g>
       <use xlink:href="#me0679a2f32" x="777.6" y="115.92" style="stroke: #000000; stroke-width: 0.8"/>
      </g>
     </g>
     <g id="text_23">
      <!-- 0.6 -->
      <g transform="translate(784.6 124.599687)scale(0.25 -0.25)">
       <defs>
        <path id="TimesNewRomanPSMT-36" d="M 2869 4325 
L 2869 4209 
Q 2456 4169 2195 4045 
Q 1934 3922 1679 3669 
Q 1425 3416 1258 3105 
Q 1091 2794 978 2366 
Q 1428 2675 1881 2675 
Q 2316 2675 2634 2325 
Q 2953 1975 2953 1425 
Q 2953 894 2631 456 
Q 2244 -75 1606 -75 
Q 1172 -75 869 213 
Q 275 772 275 1663 
Q 275 2231 503 2743 
Q 731 3256 1154 3653 
Q 1578 4050 1965 4187 
Q 2353 4325 2688 4325 
L 2869 4325 
z
M 925 2138 
Q 869 1716 869 1456 
Q 869 1156 980 804 
Q 1091 453 1309 247 
Q 1469 100 1697 100 
Q 1969 100 2183 356 
Q 2397 613 2397 1088 
Q 2397 1622 2184 2012 
Q 1972 2403 1581 2403 
Q 1463 2403 1327 2353 
Q 1191 2303 925 2138 
z
" transform="scale(0.015625)"/>
       </defs>
       <use xlink:href="#TimesNewRomanPSMT-30"/>
       <use xlink:href="#TimesNewRomanPSMT-2e" x="50"/>
       <use xlink:href="#TimesNewRomanPSMT-36" x="75"/>
      </g>
     </g>
    </g>
    <g id="ytick_16">
     <g id="line2d_45">
      <g>
       <use xlink:href="#me0679a2f32" x="777.6" y="60.48" style="stroke: #000000; stroke-width: 0.8"/>
      </g>
     </g>
     <g id="text_24">
      <!-- 0.7 -->
      <g transform="translate(784.6 69.159687)scale(0.25 -0.25)">
       <use xlink:href="#TimesNewRomanPSMT-30"/>
       <use xlink:href="#TimesNewRomanPSMT-2e" x="50"/>
       <use xlink:href="#TimesNewRomanPSMT-37" x="75"/>
      </g>
     </g>
    </g>
   </g>
   <g id="line2d_46">
    <path d="M 146.567884 410.560259 
L 156.818012 413.929685 
L 166.91597 414.800447 
L 177.103359 415.825556 
L 187.096463 417.27205 
L 197.191083 414.989144 
L 207.267421 414.251017 
L 217.441882 411.769 
L 227.631941 408.914144 
L 237.769247 407.551114 
L 247.791951 400.01842 
L 257.963423 390.835523 
L 268.119505 381.76345 
L 278.221739 373.280148 
L 288.460346 358.903333 
L 298.579754 350.340835 
L 308.77275 334.764757 
L 318.839669 323.462741 
L 328.982324 310.858262 
L 339.181114 302.725712 
L 349.386903 287.719252 
L 359.653557 276.015163 
L 369.783068 259.705022 
L 380.110388 250.503902 
L 390.368191 235.281526 
L 400.501606 218.794871 
L 410.612781 211.135085 
L 420.780153 188.541769 
L 430.947758 182.840883 
L 441.074252 163.675152 
L 451.215679 149.394165 
L 461.340445 136.761381 
L 471.391047 129.847545 
L 481.53893 116.81644 
L 491.663323 110.020302 
L 501.768366 100.06166 
L 511.83361 95.826332 
L 522.000505 90.886713 
L 532.076675 89.435017 
L 542.291572 87.841797 
L 552.452227 86.870109 
L 562.621805 86.478088 
L 572.692637 85.70204 
L 582.944925 84.992154 
L 593.032844 83.651066 
L 603.16551 84.139283 
L 613.308789 83.057157 
L 623.4077 82.83613 
L 633.509504 83.093342 
L 643.583846 82.484538 
L 653.770257 81.928353 
L 663.979414 82.352891 
L 674.117821 82.403388 
L 684.274536 82.658689 
L 694.428215 82.931547 
L 704.673174 82.593501 
L 714.829426 82.683052 
L 724.989677 82.307016 
L 735.080412 82.723847 
L 745.174712 82.692388 
" clip-path="url(#p4b994fede8)" style="fill: none; stroke-dasharray: 7.4,3.2; stroke-dashoffset: 0; stroke: #1f77b4; stroke-width: 2"/>
   </g>
   <g id="line2d_47">
    <path d="M 140.098747 410.436187 
L 142.174045 412.791788 
L 144.253943 415.040077 
L 146.329863 416.098415 
L 148.404929 415.587101 
L 150.499647 414.94854 
L 152.564779 414.003653 
L 154.624854 412.348755 
L 156.702459 410.438261 
L 158.766379 405.956004 
L 160.806109 399.712973 
L 162.870996 392.41141 
L 164.944394 382.398217 
L 167.026534 371.14918 
L 169.060654 362.337178 
L 171.11082 353.334312 
L 173.181405 340.515365 
L 175.220895 323.934416 
L 177.301449 307.503376 
L 179.378701 300.154473 
L 181.453883 286.337198 
L 183.53299 269.893549 
L 185.626433 263.851493 
L 187.700485 250.791444 
L 189.783497 243.041094 
L 191.829915 223.234758 
L 193.92537 210.849823 
L 195.982303 196.999202 
L 198.057784 186.604177 
L 200.152977 162.454292 
L 202.256242 154.428696 
L 204.328157 142.490095 
L 206.410491 131.423317 
L 208.469872 116.814614 
L 210.563715 110.82805 
L 212.650885 104.681401 
L 214.716088 99.365232 
L 216.780137 95.920336 
L 218.846628 91.949793 
L 220.91845 90.78977 
L 222.998312 88.689414 
L 225.076221 88.157286 
L 227.144927 87.303927 
L 229.218542 86.830295 
L 231.271156 86.159175 
L 233.34677 86.22359 
L 235.403107 85.429611 
L 237.486784 84.984201 
L 239.561083 84.532038 
L 241.645371 84.540325 
L 243.733567 84.278859 
L 245.791113 84.376856 
L 247.861453 83.535807 
L 249.927081 83.693851 
L 252.00712 84.06063 
L 254.093265 84.543244 
L 256.153148 84.122218 
L 258.237379 84.44221 
L 260.343904 84.781433 
L 262.404015 84.955189 
" clip-path="url(#p4b994fede8)" style="fill: none; stroke-dasharray: 7.4,3.2; stroke-dashoffset: 0; stroke: #ff7f0e; stroke-width: 2"/>
   </g>
   <g id="line2d_48">
    <path d="M 139.656771 419.086029 
L 141.181604 408.741236 
L 142.70432 415.686881 
L 144.228733 408.300617 
L 145.776319 415.76183 
L 147.304778 409.679008 
L 148.858947 413.494322 
L 150.390713 409.778682 
L 151.953588 411.119911 
L 153.480384 408.578437 
L 154.997938 408.904944 
L 156.541789 406.765749 
L 158.053858 408.239672 
L 159.591614 406.334182 
L 161.127695 405.142237 
L 162.654296 402.344142 
L 164.190795 399.489756 
L 165.716421 399.18614 
L 167.276801 394.299658 
L 168.815156 391.903052 
L 170.33344 389.784717 
L 171.860672 387.96605 
L 173.355469 381.663286 
L 174.883215 380.039503 
L 176.415121 377.60439 
L 177.953702 375.139234 
L 179.490969 369.193242 
L 181.0424 367.894147 
L 182.573406 363.458709 
L 184.109619 358.541022 
L 185.653293 357.56852 
L 187.149758 348.220395 
L 188.69432 342.639984 
L 190.22586 339.759745 
L 191.778352 332.478656 
L 193.28956 324.308076 
L 194.832115 320.789927 
L 196.370605 311.716693 
L 197.918732 305.513238 
L 199.466758 295.316686 
L 201.009677 285.39869 
L 202.543397 281.735556 
L 204.084567 273.964002 
L 205.654301 265.156079 
L 207.191047 259.113877 
L 208.738313 250.694158 
L 210.293932 243.288916 
L 211.83427 239.354087 
L 213.390326 231.180675 
L 214.910146 228.82119 
L 216.44914 221.621071 
L 217.999582 216.618843 
L 219.534122 212.855583 
L 221.071922 211.496529 
L 222.597255 207.14065 
L 224.143722 204.464832 
L 225.671386 202.868184 
L 227.202734 200.963363 
L 228.734904 200.157977 
L 230.251807 200.858423 
" clip-path="url(#p4b994fede8)" style="fill: none; stroke-dasharray: 7.4,3.2; stroke-dashoffset: 0; stroke: #a7a7a7; stroke-width: 2"/>
   </g>
   <g id="line2d_49">
    <path d="M 139.09424 414.432046 
L 139.845403 418.528146 
L 140.610496 421.602149 
L 141.376406 422.257503 
L 142.150669 420.766317 
L 142.919288 419.803362 
L 143.685639 417.922716 
L 144.447872 415.363769 
L 145.221805 413.29234 
L 145.981327 410.133315 
L 146.747975 403.249753 
L 147.505122 398.156449 
L 148.259105 386.552161 
L 149.018586 379.947955 
L 149.782229 369.775731 
L 150.550605 357.311762 
L 151.312313 348.458897 
L 152.085848 337.980603 
L 152.838216 336.957229 
L 153.606293 320.445058 
L 154.364691 320.317962 
L 155.125912 302.212436 
L 155.885796 288.412459 
L 156.663089 283.439874 
L 157.41386 276.885277 
L 158.169646 268.831662 
L 158.932257 261.930017 
L 159.699542 248.176415 
L 160.476993 243.073927 
L 161.23942 232.141494 
L 162.005572 225.108182 
L 162.75507 216.207717 
L 163.505114 208.730625 
L 164.272697 205.297023 
L 165.041144 200.23452 
L 165.80183 188.633819 
L 166.573747 188.734066 
L 167.339424 182.261176 
L 168.10923 175.071187 
L 168.876664 164.744753 
L 169.630797 164.733046 
L 170.391659 157.925005 
L 171.165118 156.84133 
L 171.912503 149.238882 
L 172.678627 146.709913 
L 173.433032 144.7121 
L 174.196985 141.473652 
L 174.967999 140.310361 
L 175.729924 137.654557 
L 176.507072 133.319262 
L 177.269232 133.28338 
L 178.018674 131.746953 
L 178.782479 131.136888 
L 179.533603 127.060277 
L 180.934799 96.440413 
L 182.419172 89.416052 
L 183.901704 86.205723 
L 186.251533 83.720615 
L 188.617256 83.551766 
L 191.012255 83.170866 
" clip-path="url(#p4b994fede8)" style="fill: none; stroke-dasharray: 7.4,3.2; stroke-dashoffset: 0; stroke: #2ca02c; stroke-width: 2"/>
   </g>
   <g id="line2d_50">
    <path d="M 138.556893 414.313257 
L 138.699007 419.122699 
L 138.857193 421.277351 
L 138.998745 421.540417 
L 139.135126 422.269398 
L 139.296716 421.266459 
L 139.442113 420.340882 
L 139.589445 417.466905 
L 139.753528 412.997959 
L 139.896873 410.117724 
L 140.053334 402.276116 
L 140.197323 400.602776 
L 140.350661 391.113866 
L 140.509464 379.563555 
L 140.6682 366.936492 
L 140.808732 361.966686 
L 140.964908 356.156444 
L 141.096706 342.808179 
L 141.250952 337.995534 
L 141.407979 326.195823 
L 141.552206 310.641206 
L 141.70015 301.34069 
L 141.851183 293.578816 
L 141.997567 284.228723 
L 142.149834 272.858318 
L 142.307341 266.973993 
L 142.445898 264.980498 
L 142.59554 257.663394 
L 142.745943 246.039078 
L 142.906662 235.105441 
L 143.046478 230.167258 
L 143.181795 220.976894 
L 143.335487 214.943039 
L 143.477768 208.901825 
L 143.628855 203.433362 
L 143.774308 196.445831 
L 143.916243 195.275289 
L 144.069618 188.181473 
L 144.213473 180.637485 
L 144.360455 172.708456 
L 144.512368 170.193567 
L 144.667906 165.757876 
L 144.80829 159.248452 
L 144.956364 151.21558 
L 145.11208 143.063128 
L 145.25948 146.541864 
L 145.404813 136.07442 
L 145.556601 127.210093 
L 145.694339 129.630449 
L 145.827675 124.918864 
L 145.977752 126.506126 
L 146.111552 123.910299 
L 146.262285 124.106512 
L 146.409765 117.696132 
L 146.569737 93.295016 
L 146.72457 86.240107 
L 146.88987 84.583472 
L 147.0603 83.203042 
L 147.244714 83.063275 
L 147.429223 82.449901 
" clip-path="url(#p4b994fede8)" style="fill: none; stroke-dasharray: 7.4,3.2; stroke-dashoffset: 0; stroke: #d62728; stroke-width: 2"/>
   </g>
   <g id="patch_7">
    <path d="M 108 448.56 
L 108 60.48 
" style="fill: none; stroke: #000000; stroke-width: 0.8; stroke-linejoin: miter; stroke-linecap: square"/>
   </g>
   <g id="patch_8">
    <path d="M 777.6 448.56 
L 777.6 60.48 
" style="fill: none; stroke: #000000; stroke-width: 0.8; stroke-linejoin: miter; stroke-linecap: square"/>
   </g>
   <g id="patch_9">
    <path d="M 108 448.56 
L 777.6 448.56 
" style="fill: none; stroke: #000000; stroke-width: 0.8; stroke-linejoin: miter; stroke-linecap: square"/>
   </g>
   <g id="patch_10">
    <path d="M 108 60.48 
L 777.6 60.48 
" style="fill: none; stroke: #000000; stroke-width: 0.8; stroke-linejoin: miter; stroke-linecap: square"/>
   </g>
  </g>
 </g>
 <defs>
  <clipPath id="p4b994fede8">
   <rect x="108" y="60.48" width="669.6" height="388.08"/>
  </clipPath>
 </defs>
</svg>
