<?xml version="1.0" encoding="utf-8" standalone="no"?>
<!DOCTYPE svg PUBLIC "-//W3C//DTD SVG 1.1//EN"
  "http://www.w3.org/Graphics/SVG/1.1/DTD/svg11.dtd">
<svg xmlns:xlink="http://www.w3.org/1999/xlink" width="864pt" height="504pt" viewBox="0 0 864 504" xmlns="http://www.w3.org/2000/svg" version="1.1">
 <metadata>
  <rdf:RDF xmlns:dc="http://purl.org/dc/elements/1.1/" xmlns:cc="http://creativecommons.org/ns#" xmlns:rdf="http://www.w3.org/1999/02/22-rdf-syntax-ns#">
   <cc:Work>
    <dc:type rdf:resource="http://purl.org/dc/dcmitype/StillImage"/>
    <dc:date>2022-12-03T19:58:58.253252</dc:date>
    <dc:format>image/svg+xml</dc:format>
    <dc:creator>
     <cc:Agent>
      <dc:title>Matplotlib v3.5.1, https://matplotlib.org/</dc:title>
     </cc:Agent>
    </dc:creator>
   </cc:Work>
  </rdf:RDF>
 </metadata>
 <defs>
  <style type="text/css">*{stroke-linejoin: round; stroke-linecap: butt}</style>
 </defs>
 <g id="figure_1">
  <g id="patch_1">
   <path d="M 0 504 
L 864 504 
L 864 0 
L 0 0 
z
" style="fill: #ffffff"/>
  </g>
  <g id="axes_1">
   <g id="patch_2">
    <path d="M 108 448.56 
L 777.6 448.56 
L 777.6 60.48 
L 108 60.48 
z
" style="fill: #ffffff"/>
   </g>
   <g id="matplotlib.axis_1">
    <g id="xtick_1">
     <g id="line2d_1">
      <path d="M 138.436364 448.56 
L 138.436364 60.48 
" clip-path="url(#pcb60fce7e7)" style="fill: none; stroke: #b0b0b0; stroke-width: 0.8; stroke-linecap: square"/>
     </g>
     <g id="line2d_2">
      <defs>
       <path id="m4662929ebf" d="M 0 0 
L 0 3.5 
" style="stroke: #000000; stroke-width: 0.8"/>
      </defs>
      <g>
       <use xlink:href="#m4662929ebf" x="138.436364" y="448.56" style="stroke: #000000; stroke-width: 0.8"/>
      </g>
     </g>
     <g id="text_1">
      <!-- 0 -->
      <g transform="translate(132.186364 472.919375)scale(0.25 -0.25)">
       <defs>
        <path id="TimesNewRomanPSMT-30" d="M 231 2094 
Q 231 2819 450 3342 
Q 669 3866 1031 4122 
Q 1313 4325 1613 4325 
Q 2100 4325 2488 3828 
Q 2972 3213 2972 2159 
Q 2972 1422 2759 906 
Q 2547 391 2217 158 
Q 1888 -75 1581 -75 
Q 975 -75 572 641 
Q 231 1244 231 2094 
z
M 844 2016 
Q 844 1141 1059 588 
Q 1238 122 1591 122 
Q 1759 122 1940 273 
Q 2122 425 2216 781 
Q 2359 1319 2359 2297 
Q 2359 3022 2209 3506 
Q 2097 3866 1919 4016 
Q 1791 4119 1609 4119 
Q 1397 4119 1231 3928 
Q 1006 3669 925 3112 
Q 844 2556 844 2016 
z
" transform="scale(0.015625)"/>
       </defs>
       <use xlink:href="#TimesNewRomanPSMT-30"/>
      </g>
     </g>
    </g>
    <g id="xtick_2">
     <g id="line2d_3">
      <path d="M 239.890909 448.56 
L 239.890909 60.48 
" clip-path="url(#pcb60fce7e7)" style="fill: none; stroke: #b0b0b0; stroke-width: 0.8; stroke-linecap: square"/>
     </g>
     <g id="line2d_4">
      <g>
       <use xlink:href="#m4662929ebf" x="239.890909" y="448.56" style="stroke: #000000; stroke-width: 0.8"/>
      </g>
     </g>
     <g id="text_2">
      <!-- 50 -->
      <g transform="translate(227.390909 472.919375)scale(0.25 -0.25)">
       <defs>
        <path id="TimesNewRomanPSMT-35" d="M 2778 4238 
L 2534 3706 
L 1259 3706 
L 981 3138 
Q 1809 3016 2294 2522 
Q 2709 2097 2709 1522 
Q 2709 1188 2573 903 
Q 2438 619 2231 419 
Q 2025 219 1772 97 
Q 1413 -75 1034 -75 
Q 653 -75 479 54 
Q 306 184 306 341 
Q 306 428 378 495 
Q 450 563 559 563 
Q 641 563 702 538 
Q 763 513 909 409 
Q 1144 247 1384 247 
Q 1750 247 2026 523 
Q 2303 800 2303 1197 
Q 2303 1581 2056 1914 
Q 1809 2247 1375 2428 
Q 1034 2569 447 2591 
L 1259 4238 
L 2778 4238 
z
" transform="scale(0.015625)"/>
       </defs>
       <use xlink:href="#TimesNewRomanPSMT-35"/>
       <use xlink:href="#TimesNewRomanPSMT-30" x="50"/>
      </g>
     </g>
    </g>
    <g id="xtick_3">
     <g id="line2d_5">
      <path d="M 341.345455 448.56 
L 341.345455 60.48 
" clip-path="url(#pcb60fce7e7)" style="fill: none; stroke: #b0b0b0; stroke-width: 0.8; stroke-linecap: square"/>
     </g>
     <g id="line2d_6">
      <g>
       <use xlink:href="#m4662929ebf" x="341.345455" y="448.56" style="stroke: #000000; stroke-width: 0.8"/>
      </g>
     </g>
     <g id="text_3">
      <!-- 100 -->
      <g transform="translate(322.595455 472.919375)scale(0.25 -0.25)">
       <defs>
        <path id="TimesNewRomanPSMT-31" d="M 750 3822 
L 1781 4325 
L 1884 4325 
L 1884 747 
Q 1884 391 1914 303 
Q 1944 216 2037 169 
Q 2131 122 2419 116 
L 2419 0 
L 825 0 
L 825 116 
Q 1125 122 1212 167 
Q 1300 213 1334 289 
Q 1369 366 1369 747 
L 1369 3034 
Q 1369 3497 1338 3628 
Q 1316 3728 1258 3775 
Q 1200 3822 1119 3822 
Q 1003 3822 797 3725 
L 750 3822 
z
" transform="scale(0.015625)"/>
       </defs>
       <use xlink:href="#TimesNewRomanPSMT-31"/>
       <use xlink:href="#TimesNewRomanPSMT-30" x="50"/>
       <use xlink:href="#TimesNewRomanPSMT-30" x="100"/>
      </g>
     </g>
    </g>
    <g id="xtick_4">
     <g id="line2d_7">
      <path d="M 442.8 448.56 
L 442.8 60.48 
" clip-path="url(#pcb60fce7e7)" style="fill: none; stroke: #b0b0b0; stroke-width: 0.8; stroke-linecap: square"/>
     </g>
     <g id="line2d_8">
      <g>
       <use xlink:href="#m4662929ebf" x="442.8" y="448.56" style="stroke: #000000; stroke-width: 0.8"/>
      </g>
     </g>
     <g id="text_4">
      <!-- 150 -->
      <g transform="translate(424.05 472.919375)scale(0.25 -0.25)">
       <use xlink:href="#TimesNewRomanPSMT-31"/>
       <use xlink:href="#TimesNewRomanPSMT-35" x="50"/>
       <use xlink:href="#TimesNewRomanPSMT-30" x="100"/>
      </g>
     </g>
    </g>
    <g id="xtick_5">
     <g id="line2d_9">
      <path d="M 544.254545 448.56 
L 544.254545 60.48 
" clip-path="url(#pcb60fce7e7)" style="fill: none; stroke: #b0b0b0; stroke-width: 0.8; stroke-linecap: square"/>
     </g>
     <g id="line2d_10">
      <g>
       <use xlink:href="#m4662929ebf" x="544.254545" y="448.56" style="stroke: #000000; stroke-width: 0.8"/>
      </g>
     </g>
     <g id="text_5">
      <!-- 200 -->
      <g transform="translate(525.504545 472.919375)scale(0.25 -0.25)">
       <defs>
        <path id="TimesNewRomanPSMT-32" d="M 2934 816 
L 2638 0 
L 138 0 
L 138 116 
Q 1241 1122 1691 1759 
Q 2141 2397 2141 2925 
Q 2141 3328 1894 3587 
Q 1647 3847 1303 3847 
Q 991 3847 742 3664 
Q 494 3481 375 3128 
L 259 3128 
Q 338 3706 661 4015 
Q 984 4325 1469 4325 
Q 1984 4325 2329 3994 
Q 2675 3663 2675 3213 
Q 2675 2891 2525 2569 
Q 2294 2063 1775 1497 
Q 997 647 803 472 
L 1909 472 
Q 2247 472 2383 497 
Q 2519 522 2628 598 
Q 2738 675 2819 816 
L 2934 816 
z
" transform="scale(0.015625)"/>
       </defs>
       <use xlink:href="#TimesNewRomanPSMT-32"/>
       <use xlink:href="#TimesNewRomanPSMT-30" x="50"/>
       <use xlink:href="#TimesNewRomanPSMT-30" x="100"/>
      </g>
     </g>
    </g>
    <g id="xtick_6">
     <g id="line2d_11">
      <path d="M 645.709091 448.56 
L 645.709091 60.48 
" clip-path="url(#pcb60fce7e7)" style="fill: none; stroke: #b0b0b0; stroke-width: 0.8; stroke-linecap: square"/>
     </g>
     <g id="line2d_12">
      <g>
       <use xlink:href="#m4662929ebf" x="645.709091" y="448.56" style="stroke: #000000; stroke-width: 0.8"/>
      </g>
     </g>
     <g id="text_6">
      <!-- 250 -->
      <g transform="translate(626.959091 472.919375)scale(0.25 -0.25)">
       <use xlink:href="#TimesNewRomanPSMT-32"/>
       <use xlink:href="#TimesNewRomanPSMT-35" x="50"/>
       <use xlink:href="#TimesNewRomanPSMT-30" x="100"/>
      </g>
     </g>
    </g>
    <g id="xtick_7">
     <g id="line2d_13">
      <path d="M 747.163636 448.56 
L 747.163636 60.48 
" clip-path="url(#pcb60fce7e7)" style="fill: none; stroke: #b0b0b0; stroke-width: 0.8; stroke-linecap: square"/>
     </g>
     <g id="line2d_14">
      <g>
       <use xlink:href="#m4662929ebf" x="747.163636" y="448.56" style="stroke: #000000; stroke-width: 0.8"/>
      </g>
     </g>
     <g id="text_7">
      <!-- 300 -->
      <g transform="translate(728.413636 472.919375)scale(0.25 -0.25)">
       <defs>
        <path id="TimesNewRomanPSMT-33" d="M 325 3431 
Q 506 3859 782 4092 
Q 1059 4325 1472 4325 
Q 1981 4325 2253 3994 
Q 2459 3747 2459 3466 
Q 2459 3003 1878 2509 
Q 2269 2356 2469 2072 
Q 2669 1788 2669 1403 
Q 2669 853 2319 450 
Q 1863 -75 997 -75 
Q 569 -75 414 31 
Q 259 138 259 259 
Q 259 350 332 419 
Q 406 488 509 488 
Q 588 488 669 463 
Q 722 447 909 348 
Q 1097 250 1169 231 
Q 1284 197 1416 197 
Q 1734 197 1970 444 
Q 2206 691 2206 1028 
Q 2206 1275 2097 1509 
Q 2016 1684 1919 1775 
Q 1784 1900 1550 2001 
Q 1316 2103 1072 2103 
L 972 2103 
L 972 2197 
Q 1219 2228 1467 2375 
Q 1716 2522 1828 2728 
Q 1941 2934 1941 3181 
Q 1941 3503 1739 3701 
Q 1538 3900 1238 3900 
Q 753 3900 428 3381 
L 325 3431 
z
" transform="scale(0.015625)"/>
       </defs>
       <use xlink:href="#TimesNewRomanPSMT-33"/>
       <use xlink:href="#TimesNewRomanPSMT-30" x="50"/>
       <use xlink:href="#TimesNewRomanPSMT-30" x="100"/>
      </g>
     </g>
    </g>
   </g>
   <g id="matplotlib.axis_2">
    <g id="ytick_1">
     <g id="line2d_15">
      <path d="M 108 448.56 
L 777.6 448.56 
" clip-path="url(#pcb60fce7e7)" style="fill: none; stroke: #b0b0b0; stroke-width: 0.8; stroke-linecap: square"/>
     </g>
     <g id="line2d_16">
      <defs>
       <path id="ma574c5e957" d="M 0 0 
L -3.5 0 
" style="stroke: #000000; stroke-width: 0.8"/>
      </defs>
      <g>
       <use xlink:href="#ma574c5e957" x="108" y="448.56" style="stroke: #000000; stroke-width: 0.8"/>
      </g>
     </g>
     <g id="text_8">
      <!-- 0.075 -->
      <g transform="translate(44.75 457.239688)scale(0.25 -0.25)">
       <defs>
        <path id="TimesNewRomanPSMT-2e" d="M 800 606 
Q 947 606 1047 504 
Q 1147 403 1147 259 
Q 1147 116 1045 14 
Q 944 -88 800 -88 
Q 656 -88 554 14 
Q 453 116 453 259 
Q 453 406 554 506 
Q 656 606 800 606 
z
" transform="scale(0.015625)"/>
        <path id="TimesNewRomanPSMT-37" d="M 644 4238 
L 2916 4238 
L 2916 4119 
L 1503 -88 
L 1153 -88 
L 2419 3728 
L 1253 3728 
Q 900 3728 750 3644 
Q 488 3500 328 3200 
L 238 3234 
L 644 4238 
z
" transform="scale(0.015625)"/>
       </defs>
       <use xlink:href="#TimesNewRomanPSMT-30"/>
       <use xlink:href="#TimesNewRomanPSMT-2e" x="50"/>
       <use xlink:href="#TimesNewRomanPSMT-30" x="75"/>
       <use xlink:href="#TimesNewRomanPSMT-37" x="125"/>
       <use xlink:href="#TimesNewRomanPSMT-35" x="175"/>
      </g>
     </g>
    </g>
    <g id="ytick_2">
     <g id="line2d_17">
      <path d="M 108 393.12 
L 777.6 393.12 
" clip-path="url(#pcb60fce7e7)" style="fill: none; stroke: #b0b0b0; stroke-width: 0.8; stroke-linecap: square"/>
     </g>
     <g id="line2d_18">
      <g>
       <use xlink:href="#ma574c5e957" x="108" y="393.12" style="stroke: #000000; stroke-width: 0.8"/>
      </g>
     </g>
     <g id="text_9">
      <!-- 0.080 -->
      <g transform="translate(44.75 401.799688)scale(0.25 -0.25)">
       <defs>
        <path id="TimesNewRomanPSMT-38" d="M 1228 2134 
Q 725 2547 579 2797 
Q 434 3047 434 3316 
Q 434 3728 753 4026 
Q 1072 4325 1600 4325 
Q 2113 4325 2425 4047 
Q 2738 3769 2738 3413 
Q 2738 3175 2569 2928 
Q 2400 2681 1866 2347 
Q 2416 1922 2594 1678 
Q 2831 1359 2831 1006 
Q 2831 559 2490 242 
Q 2150 -75 1597 -75 
Q 994 -75 656 303 
Q 388 606 388 966 
Q 388 1247 577 1523 
Q 766 1800 1228 2134 
z
M 1719 2469 
Q 2094 2806 2194 3001 
Q 2294 3197 2294 3444 
Q 2294 3772 2109 3958 
Q 1925 4144 1606 4144 
Q 1288 4144 1088 3959 
Q 888 3775 888 3528 
Q 888 3366 970 3203 
Q 1053 3041 1206 2894 
L 1719 2469 
z
M 1375 2016 
Q 1116 1797 991 1539 
Q 866 1281 866 981 
Q 866 578 1086 336 
Q 1306 94 1647 94 
Q 1984 94 2187 284 
Q 2391 475 2391 747 
Q 2391 972 2272 1150 
Q 2050 1481 1375 2016 
z
" transform="scale(0.015625)"/>
       </defs>
       <use xlink:href="#TimesNewRomanPSMT-30"/>
       <use xlink:href="#TimesNewRomanPSMT-2e" x="50"/>
       <use xlink:href="#TimesNewRomanPSMT-30" x="75"/>
       <use xlink:href="#TimesNewRomanPSMT-38" x="125"/>
       <use xlink:href="#TimesNewRomanPSMT-30" x="175"/>
      </g>
     </g>
    </g>
    <g id="ytick_3">
     <g id="line2d_19">
      <path d="M 108 337.68 
L 777.6 337.68 
" clip-path="url(#pcb60fce7e7)" style="fill: none; stroke: #b0b0b0; stroke-width: 0.8; stroke-linecap: square"/>
     </g>
     <g id="line2d_20">
      <g>
       <use xlink:href="#ma574c5e957" x="108" y="337.68" style="stroke: #000000; stroke-width: 0.8"/>
      </g>
     </g>
     <g id="text_10">
      <!-- 0.085 -->
      <g transform="translate(44.75 346.359688)scale(0.25 -0.25)">
       <use xlink:href="#TimesNewRomanPSMT-30"/>
       <use xlink:href="#TimesNewRomanPSMT-2e" x="50"/>
       <use xlink:href="#TimesNewRomanPSMT-30" x="75"/>
       <use xlink:href="#TimesNewRomanPSMT-38" x="125"/>
       <use xlink:href="#TimesNewRomanPSMT-35" x="175"/>
      </g>
     </g>
    </g>
    <g id="ytick_4">
     <g id="line2d_21">
      <path d="M 108 282.24 
L 777.6 282.24 
" clip-path="url(#pcb60fce7e7)" style="fill: none; stroke: #b0b0b0; stroke-width: 0.8; stroke-linecap: square"/>
     </g>
     <g id="line2d_22">
      <g>
       <use xlink:href="#ma574c5e957" x="108" y="282.24" style="stroke: #000000; stroke-width: 0.8"/>
      </g>
     </g>
     <g id="text_11">
      <!-- 0.090 -->
      <g transform="translate(44.75 290.919688)scale(0.25 -0.25)">
       <defs>
        <path id="TimesNewRomanPSMT-39" d="M 338 -88 
L 338 28 
Q 744 34 1094 217 
Q 1444 400 1770 856 
Q 2097 1313 2225 1859 
Q 1734 1544 1338 1544 
Q 891 1544 572 1889 
Q 253 2234 253 2806 
Q 253 3363 572 3797 
Q 956 4325 1575 4325 
Q 2097 4325 2469 3894 
Q 2925 3359 2925 2575 
Q 2925 1869 2578 1258 
Q 2231 647 1613 244 
Q 1109 -88 516 -88 
L 338 -88 
z
M 2275 2091 
Q 2331 2497 2331 2741 
Q 2331 3044 2228 3395 
Q 2125 3747 1936 3934 
Q 1747 4122 1506 4122 
Q 1228 4122 1018 3872 
Q 809 3622 809 3128 
Q 809 2469 1088 2097 
Q 1291 1828 1588 1828 
Q 1731 1828 1928 1897 
Q 2125 1966 2275 2091 
z
" transform="scale(0.015625)"/>
       </defs>
       <use xlink:href="#TimesNewRomanPSMT-30"/>
       <use xlink:href="#TimesNewRomanPSMT-2e" x="50"/>
       <use xlink:href="#TimesNewRomanPSMT-30" x="75"/>
       <use xlink:href="#TimesNewRomanPSMT-39" x="125"/>
       <use xlink:href="#TimesNewRomanPSMT-30" x="175"/>
      </g>
     </g>
    </g>
    <g id="ytick_5">
     <g id="line2d_23">
      <path d="M 108 226.8 
L 777.6 226.8 
" clip-path="url(#pcb60fce7e7)" style="fill: none; stroke: #b0b0b0; stroke-width: 0.8; stroke-linecap: square"/>
     </g>
     <g id="line2d_24">
      <g>
       <use xlink:href="#ma574c5e957" x="108" y="226.8" style="stroke: #000000; stroke-width: 0.8"/>
      </g>
     </g>
     <g id="text_12">
      <!-- 0.095 -->
      <g transform="translate(44.75 235.479688)scale(0.25 -0.25)">
       <use xlink:href="#TimesNewRomanPSMT-30"/>
       <use xlink:href="#TimesNewRomanPSMT-2e" x="50"/>
       <use xlink:href="#TimesNewRomanPSMT-30" x="75"/>
       <use xlink:href="#TimesNewRomanPSMT-39" x="125"/>
       <use xlink:href="#TimesNewRomanPSMT-35" x="175"/>
      </g>
     </g>
    </g>
    <g id="ytick_6">
     <g id="line2d_25">
      <path d="M 108 171.36 
L 777.6 171.36 
" clip-path="url(#pcb60fce7e7)" style="fill: none; stroke: #b0b0b0; stroke-width: 0.8; stroke-linecap: square"/>
     </g>
     <g id="line2d_26">
      <g>
       <use xlink:href="#ma574c5e957" x="108" y="171.36" style="stroke: #000000; stroke-width: 0.8"/>
      </g>
     </g>
     <g id="text_13">
      <!-- 0.100 -->
      <g transform="translate(44.75 180.039688)scale(0.25 -0.25)">
       <use xlink:href="#TimesNewRomanPSMT-30"/>
       <use xlink:href="#TimesNewRomanPSMT-2e" x="50"/>
       <use xlink:href="#TimesNewRomanPSMT-31" x="75"/>
       <use xlink:href="#TimesNewRomanPSMT-30" x="125"/>
       <use xlink:href="#TimesNewRomanPSMT-30" x="175"/>
      </g>
     </g>
    </g>
    <g id="ytick_7">
     <g id="line2d_27">
      <path d="M 108 115.92 
L 777.6 115.92 
" clip-path="url(#pcb60fce7e7)" style="fill: none; stroke: #b0b0b0; stroke-width: 0.8; stroke-linecap: square"/>
     </g>
     <g id="line2d_28">
      <g>
       <use xlink:href="#ma574c5e957" x="108" y="115.92" style="stroke: #000000; stroke-width: 0.8"/>
      </g>
     </g>
     <g id="text_14">
      <!-- 0.105 -->
      <g transform="translate(44.75 124.599688)scale(0.25 -0.25)">
       <use xlink:href="#TimesNewRomanPSMT-30"/>
       <use xlink:href="#TimesNewRomanPSMT-2e" x="50"/>
       <use xlink:href="#TimesNewRomanPSMT-31" x="75"/>
       <use xlink:href="#TimesNewRomanPSMT-30" x="125"/>
       <use xlink:href="#TimesNewRomanPSMT-35" x="175"/>
      </g>
     </g>
    </g>
    <g id="ytick_8">
     <g id="line2d_29">
      <path d="M 108 60.48 
L 777.6 60.48 
" clip-path="url(#pcb60fce7e7)" style="fill: none; stroke: #b0b0b0; stroke-width: 0.8; stroke-linecap: square"/>
     </g>
     <g id="line2d_30">
      <g>
       <use xlink:href="#ma574c5e957" x="108" y="60.48" style="stroke: #000000; stroke-width: 0.8"/>
      </g>
     </g>
     <g id="text_15">
      <!-- 0.110 -->
      <g transform="translate(45.6875 69.159688)scale(0.25 -0.25)">
       <use xlink:href="#TimesNewRomanPSMT-30"/>
       <use xlink:href="#TimesNewRomanPSMT-2e" x="50"/>
       <use xlink:href="#TimesNewRomanPSMT-31" x="75"/>
       <use xlink:href="#TimesNewRomanPSMT-31" x="121.25"/>
       <use xlink:href="#TimesNewRomanPSMT-30" x="171.25"/>
      </g>
     </g>
    </g>
   </g>
   <g id="line2d_31">
    <path d="M 138.436364 147.311236 
L 144.523636 284.848688 
L 150.610909 382.040385 
L 156.698182 414.644721 
L 162.785455 422.606754 
L 168.872727 421.74121 
L 174.96 416.811364 
L 181.047273 411.766555 
L 187.134545 405.203041 
L 193.221818 399.950276 
L 199.309091 392.202727 
L 205.396364 384.843895 
L 211.483636 376.102156 
L 217.570909 368.674119 
L 223.658182 362.225738 
L 229.745455 358.464826 
L 235.832727 354.670362 
L 241.92 353.83519 
L 248.007273 354.421531 
L 254.094545 355.692767 
L 260.181818 355.549702 
L 266.269091 354.420168 
L 272.356364 352.254433 
L 278.443636 349.856388 
L 284.530909 346.46824 
L 290.618182 345.432266 
L 296.705455 344.04459 
L 302.792727 342.978811 
L 308.88 342.026178 
L 314.967273 343.194658 
L 321.054545 341.552019 
L 327.141818 341.487356 
L 333.229091 340.702144 
L 339.316364 339.50789 
L 345.403636 337.786736 
L 351.490909 338.06401 
L 357.578182 338.717511 
L 363.665455 339.120138 
L 369.752727 338.375347 
L 375.84 338.688444 
L 381.927273 338.675273 
L 388.014545 338.826684 
L 394.101818 339.089197 
L 400.189091 339.977961 
L 406.276364 340.478917 
L 412.363636 341.224105 
L 418.450909 341.771045 
L 424.538182 342.176681 
L 430.625455 343.074755 
L 436.712727 343.769644 
L 442.8 344.597435 
L 448.887273 345.427611 
L 454.974545 346.267778 
L 461.061818 346.856105 
L 467.149091 347.580458 
L 473.236364 348.335354 
L 479.323636 348.981759 
L 485.410909 349.584109 
L 491.498182 350.273377 
L 497.585455 350.814868 
L 503.672727 351.524573 
L 509.76 352.196582 
L 515.847273 352.970327 
L 521.934545 353.665669 
L 528.021818 354.438051 
L 534.109091 355.201917 
L 540.196364 356.00348 
L 546.283636 356.750996 
L 552.370909 357.49397 
L 558.458182 358.138899 
L 564.545455 358.788767 
L 570.632727 359.393501 
L 576.72 360.019979 
L 582.807273 360.597804 
L 588.894545 361.167907 
L 594.981818 361.676981 
L 601.069091 362.155227 
L 607.156364 362.608211 
L 613.243636 363.062102 
L 619.330909 363.480397 
L 625.418182 363.862132 
L 631.505455 364.230184 
L 637.592727 364.590629 
L 643.68 364.93813 
L 649.767273 365.259686 
L 655.854545 365.562905 
L 661.941818 365.858062 
L 668.029091 366.136642 
L 674.116364 366.393705 
L 680.203636 366.627435 
L 686.290909 366.838683 
L 692.378182 367.030345 
L 698.465455 367.21474 
L 704.552727 367.399022 
L 710.64 367.584269 
L 716.727273 367.76645 
L 722.814545 367.944997 
L 728.901818 368.118436 
L 734.989091 368.286821 
L 741.076364 368.451573 
L 747.163636 368.610421 
" clip-path="url(#pcb60fce7e7)" style="fill: none; stroke: #1f77b4; stroke-width: 3; stroke-linecap: square"/>
   </g>
   <g id="line2d_32">
    <path d="M 138.436364 147.311236 
L 144.523636 284.394058 
L 150.610909 381.863483 
L 156.698182 414.432734 
L 162.785455 422.627079 
L 168.872727 422.182555 
L 174.96 417.532878 
L 181.047273 412.37356 
L 187.134545 406.496362 
L 193.221818 401.452802 
L 199.309091 394.893943 
L 205.396364 388.132124 
L 211.483636 379.737602 
L 217.570909 372.233775 
L 223.658182 365.510788 
L 229.745455 361.728643 
L 235.832727 358.334932 
L 241.92 358.234559 
L 248.007273 358.758734 
L 254.094545 361.524832 
L 260.181818 364.376826 
L 266.269091 365.691096 
L 272.356364 364.931374 
L 278.443636 364.032561 
L 284.530909 362.468268 
L 290.618182 361.403794 
L 296.705455 360.034967 
L 302.792727 358.410212 
L 308.88 357.525364 
L 314.967273 356.479342 
L 321.054545 355.730918 
L 327.141818 354.738375 
L 333.229091 353.754517 
L 339.316364 353.728289 
L 345.403636 352.626119 
L 351.490909 351.529456 
L 357.578182 351.014762 
L 363.665455 350.902296 
L 369.752727 351.343357 
L 375.84 352.164677 
L 381.927273 352.359348 
L 388.014545 352.775032 
L 394.101818 353.306644 
L 400.189091 353.68236 
L 406.276364 354.329787 
L 412.363636 354.351077 
L 418.450909 355.232404 
L 424.538182 356.023747 
L 430.625455 356.607817 
L 436.712727 357.236395 
L 442.8 357.963019 
L 448.887273 358.83532 
L 454.974545 359.390435 
L 461.061818 360.107692 
L 467.149091 360.579466 
L 473.236364 361.105288 
L 479.323636 361.533802 
L 485.410909 362.006485 
L 491.498182 362.54139 
L 497.585455 363.256035 
L 503.672727 364.014848 
L 509.76 364.710191 
L 515.847273 365.460886 
L 521.934545 366.155093 
L 528.021818 366.881489 
L 534.109091 367.530619 
L 540.196364 368.198257 
L 546.283636 368.778352 
L 552.370909 369.382405 
L 558.458182 369.884269 
L 564.545455 370.405549 
L 570.632727 370.873917 
L 576.72 371.350404 
L 582.807273 371.822689 
L 588.894545 372.301958 
L 594.981818 372.745914 
L 601.069091 373.181014 
L 607.156364 373.591361 
L 613.243636 373.984223 
L 619.330909 374.355568 
L 625.418182 374.714253 
L 631.505455 375.05409 
L 637.592727 375.371388 
L 643.68 375.67103 
L 649.767273 375.96386 
L 655.854545 376.251126 
L 661.941818 376.531976 
L 668.029091 376.790913 
L 674.116364 377.030717 
L 680.203636 377.260417 
L 686.290909 377.487788 
L 692.378182 377.721688 
L 698.465455 377.956667 
L 704.552727 378.186594 
L 710.64 378.417882 
L 716.727273 378.642529 
L 722.814545 378.857183 
L 728.901818 379.062357 
L 734.989091 379.257255 
L 741.076364 379.445113 
L 747.163636 379.625818 
" clip-path="url(#pcb60fce7e7)" style="fill: none; stroke: #ff7f0e; stroke-width: 3; stroke-linecap: square"/>
   </g>
   <g id="line2d_33">
    <path d="M 138.436364 147.311236 
L 144.523636 127.719363 
L 150.610909 130.032818 
L 156.698182 130.161918 
L 162.785455 134.345667 
L 168.872727 133.62262 
L 174.96 136.507541 
L 181.047273 135.497228 
L 187.134545 138.980299 
L 193.221818 138.009272 
L 199.309091 141.998407 
L 205.396364 142.087766 
L 211.483636 146.64814 
L 217.570909 147.106403 
L 223.658182 153.055645 
L 229.745455 154.98044 
L 235.832727 162.753764 
L 241.92 165.892229 
L 248.007273 173.950548 
L 254.094545 177.893811 
L 260.181818 185.445838 
L 266.269091 187.661532 
L 272.356364 194.934468 
L 278.443636 198.160476 
L 284.530909 204.559238 
L 290.618182 206.993277 
L 296.705455 212.441109 
L 302.792727 215.324668 
L 308.88 221.430828 
L 314.967273 223.697617 
L 321.054545 229.084363 
L 327.141818 232.190922 
L 333.229091 238.036158 
L 339.316364 240.585671 
L 345.403636 244.927701 
L 351.490909 246.680931 
L 357.578182 250.77305 
L 363.665455 252.26865 
L 369.752727 255.377252 
L 375.84 255.851639 
L 381.927273 259.075602 
L 388.014545 261.054671 
L 394.101818 263.16545 
L 400.189091 263.487688 
L 406.276364 265.734039 
L 412.363636 266.25986 
L 418.450909 267.986521 
L 424.538182 267.660083 
L 430.625455 268.702529 
L 436.712727 269.793912 
L 442.8 270.737461 
L 448.887273 270.338809 
L 454.974545 270.615061 
L 461.061818 271.346169 
L 467.149091 271.848601 
L 473.236364 272.819628 
L 479.323636 273.718668 
L 485.410909 275.112759 
L 491.498182 275.80004 
L 497.585455 276.453484 
L 503.672727 277.898102 
L 509.76 279.019802 
L 515.847273 280.288768 
L 521.934545 281.231181 
L 528.021818 281.98375 
L 534.109091 282.548517 
L 540.196364 283.36308 
L 546.283636 283.847912 
L 552.370909 284.589353 
L 558.458182 285.128232 
L 564.545455 285.847646 
L 570.632727 286.345422 
L 576.72 287.139548 
L 582.807273 287.851695 
L 588.894545 288.685106 
L 594.981818 289.425185 
L 601.069091 290.407225 
L 607.156364 291.147758 
L 613.243636 291.615786 
L 619.330909 291.891811 
L 625.418182 292.044073 
L 631.505455 292.28138 
L 637.592727 292.528565 
L 643.68 292.791078 
L 649.767273 293.029861 
L 655.854545 293.392179 
L 661.941818 293.735308 
L 668.029091 294.085478 
L 674.116364 294.441324 
L 680.203636 294.874153 
L 686.290909 295.212059 
L 692.378182 295.426657 
L 698.465455 295.628538 
L 704.552727 295.80578 
L 710.64 295.970305 
L 716.727273 296.040135 
L 722.814545 296.078626 
L 728.901818 296.013111 
L 734.989091 295.865958 
L 741.076364 295.632512 
L 747.163636 295.36171 
" clip-path="url(#pcb60fce7e7)" style="fill: none; stroke: #a7a7a7; stroke-width: 3; stroke-linecap: square"/>
   </g>
   <g id="line2d_34">
    <path d="M 138.436364 147.311236 
L 144.523636 261.939972 
L 150.610909 353.704785 
L 156.698182 389.821543 
L 162.785455 399.682086 
L 168.872727 400.706989 
L 174.96 396.76611 
L 181.047273 392.156004 
L 187.134545 387.257496 
L 193.221818 381.886192 
L 199.309091 375.322678 
L 205.396364 369.324498 
L 211.483636 364.259422 
L 217.570909 359.732827 
L 223.658182 357.284595 
L 229.745455 356.189408 
L 235.832727 357.853336 
L 241.92 358.261185 
L 248.007273 357.42749 
L 254.094545 356.860168 
L 260.181818 357.30543 
L 266.269091 356.683607 
L 272.356364 356.600834 
L 278.443636 356.89883 
L 284.530909 356.941636 
L 290.618182 356.853128 
L 296.705455 356.370964 
L 302.792727 355.114602 
L 308.88 354.395188 
L 314.967273 353.524875 
L 321.054545 353.25061 
L 327.141818 352.074239 
L 333.229091 350.685144 
L 339.316364 350.977065 
L 345.403636 350.234375 
L 351.490909 349.651554 
L 357.578182 349.93337 
L 363.665455 350.207692 
L 369.752727 351.478758 
L 375.84 352.036883 
L 381.927273 353.039816 
L 388.014545 353.43245 
L 394.101818 353.868402 
L 400.189091 353.990859 
L 406.276364 353.768597 
L 412.363636 354.353234 
L 418.450909 355.255737 
L 424.538182 356.348767 
L 430.625455 356.483373 
L 436.712727 357.366517 
L 442.8 358.020756 
L 448.887273 358.241599 
L 454.974545 358.882781 
L 461.061818 360.338356 
L 467.149091 360.960349 
L 473.236364 361.751352 
L 479.323636 362.399801 
L 485.410909 363.200682 
L 491.498182 364.009512 
L 497.585455 364.738463 
L 503.672727 365.679514 
L 509.76 366.475059 
L 515.847273 367.576604 
L 521.934545 368.731288 
L 528.021818 369.409202 
L 534.109091 370.337025 
L 540.196364 370.978661 
L 546.283636 371.458895 
L 552.370909 372.006801 
L 558.458182 372.513263 
L 564.545455 372.964372 
L 570.632727 373.915188 
L 576.72 374.435106 
L 582.807273 374.919597 
L 588.894545 375.441558 
L 594.981818 376.040786 
L 601.069091 376.766104 
L 607.156364 377.264618 
L 613.243636 377.69211 
L 619.330909 378.291565 
L 625.418182 378.895448 
L 631.505455 379.213484 
L 637.592727 379.71285 
L 643.68 380.11786 
L 649.767273 380.290106 
L 655.854545 380.523212 
L 661.941818 380.665255 
L 668.029091 381.064532 
L 674.116364 381.500143 
L 680.203636 381.887327 
L 686.290909 382.250327 
L 692.378182 382.565581 
L 698.465455 382.511932 
L 704.552727 382.522492 
L 710.64 382.661696 
L 716.727273 382.872774 
L 722.814545 383.145393 
L 728.901818 383.438961 
L 734.989091 383.698635 
L 741.076364 383.935034 
L 747.163636 384.15809 
" clip-path="url(#pcb60fce7e7)" style="fill: none; stroke: #2ca02c; stroke-width: 3; stroke-linecap: square"/>
   </g>
   <g id="line2d_35">
    <path d="M 138.436364 147.311236 
L 144.523636 262.07929 
L 150.610909 353.981151 
L 156.698182 389.868664 
L 162.785455 400.620639 
L 168.872727 401.138456 
L 174.96 397.398947 
L 181.047273 394.005065 
L 187.134545 389.115981 
L 193.221818 384.354975 
L 199.309091 378.223041 
L 205.396364 372.81018 
L 211.483636 367.787455 
L 217.570909 361.140259 
L 223.658182 356.166358 
L 229.745455 353.268152 
L 235.832727 353.251632 
L 241.92 353.254924 
L 248.007273 353.407698 
L 254.094545 353.303919 
L 260.181818 354.098498 
L 266.269091 353.59936 
L 272.356364 352.97941 
L 278.443636 351.908238 
L 284.530909 352.178699 
L 290.618182 353.263497 
L 296.705455 353.469182 
L 302.792727 353.830024 
L 308.88 354.157144 
L 314.967273 352.307572 
L 321.054545 352.060898 
L 327.141818 352.0714 
L 333.229091 352.126583 
L 339.316364 353.557576 
L 345.403636 354.518497 
L 351.490909 356.080235 
L 357.578182 356.528109 
L 363.665455 357.195293 
L 369.752727 358.173359 
L 375.84 358.41305 
L 381.927273 357.890181 
L 388.014545 357.73701 
L 394.101818 357.934406 
L 400.189091 358.059134 
L 406.276364 358.987071 
L 412.363636 360.181268 
L 418.450909 360.984364 
L 424.538182 361.40141 
L 430.625455 361.973728 
L 436.712727 362.247084 
L 442.8 362.602022 
L 448.887273 363.910047 
L 454.974545 364.717968 
L 461.061818 365.328721 
L 467.149091 365.9309 
L 473.236364 366.801554 
L 479.323636 367.9337 
L 485.410909 368.156586 
L 491.498182 368.491086 
L 497.585455 369.103599 
L 503.672727 369.589907 
L 509.76 370.271908 
L 515.847273 370.842352 
L 521.934545 370.68691 
L 528.021818 370.906731 
L 534.109091 371.507265 
L 540.196364 371.865722 
L 546.283636 372.308203 
L 552.370909 372.77447 
L 558.458182 373.069968 
L 564.545455 373.932334 
L 570.632727 374.235836 
L 576.72 374.462129 
L 582.807273 374.507774 
L 588.894545 374.776873 
L 594.981818 375.049718 
L 601.069091 375.240188 
L 607.156364 375.447746 
L 613.243636 375.727007 
L 619.330909 375.8703 
L 625.418182 376.191685 
L 631.505455 376.603055 
L 637.592727 376.781035 
L 643.68 377.052007 
L 649.767273 377.371462 
L 655.854545 377.557901 
L 661.941818 377.877527 
L 668.029091 378.163601 
L 674.116364 378.478061 
L 680.203636 378.753461 
L 686.290909 378.923493 
L 692.378182 379.077402 
L 698.465455 379.047937 
L 704.552727 379.097783 
L 710.64 379.249875 
L 716.727273 379.420645 
L 722.814545 379.641431 
L 728.901818 379.864431 
L 734.989091 380.070229 
L 741.076364 380.268022 
L 747.163636 380.461785 
" clip-path="url(#pcb60fce7e7)" style="fill: none; stroke: #d62728; stroke-width: 3; stroke-linecap: square"/>
   </g>
   <g id="patch_3">
    <path d="M 108 448.56 
L 108 60.48 
" style="fill: none; stroke: #aaaaaa; stroke-width: 0.8; stroke-linejoin: miter; stroke-linecap: square"/>
   </g>
   <g id="patch_4">
    <path d="M 777.6 448.56 
L 777.6 60.48 
" style="fill: none; stroke: #aaaaaa; stroke-width: 0.8; stroke-linejoin: miter; stroke-linecap: square"/>
   </g>
   <g id="patch_5">
    <path d="M 108 448.56 
L 777.6 448.56 
" style="fill: none; stroke: #aaaaaa; stroke-width: 0.8; stroke-linejoin: miter; stroke-linecap: square"/>
   </g>
   <g id="patch_6">
    <path d="M 108 60.48 
L 777.6 60.48 
" style="fill: none; stroke: #aaaaaa; stroke-width: 0.8; stroke-linejoin: miter; stroke-linecap: square"/>
   </g>
  </g>
  <g id="axes_2">
   <g id="matplotlib.axis_3">
    <g id="ytick_9">
     <g id="line2d_36">
      <defs>
       <path id="m39e0e63df8" d="M 0 0 
L 3.5 0 
" style="stroke: #000000; stroke-width: 0.8"/>
      </defs>
      <g>
       <use xlink:href="#m39e0e63df8" x="777.6" y="448.56" style="stroke: #000000; stroke-width: 0.8"/>
      </g>
     </g>
     <g id="text_16">
      <!-- 0.0 -->
      <g transform="translate(784.6 457.239688)scale(0.25 -0.25)">
       <use xlink:href="#TimesNewRomanPSMT-30"/>
       <use xlink:href="#TimesNewRomanPSMT-2e" x="50"/>
       <use xlink:href="#TimesNewRomanPSMT-30" x="75"/>
      </g>
     </g>
    </g>
    <g id="ytick_10">
     <g id="line2d_37">
      <g>
       <use xlink:href="#m39e0e63df8" x="777.6" y="393.12" style="stroke: #000000; stroke-width: 0.8"/>
      </g>
     </g>
     <g id="text_17">
      <!-- 0.1 -->
      <g transform="translate(784.6 401.799688)scale(0.25 -0.25)">
       <use xlink:href="#TimesNewRomanPSMT-30"/>
       <use xlink:href="#TimesNewRomanPSMT-2e" x="50"/>
       <use xlink:href="#TimesNewRomanPSMT-31" x="75"/>
      </g>
     </g>
    </g>
    <g id="ytick_11">
     <g id="line2d_38">
      <g>
       <use xlink:href="#m39e0e63df8" x="777.6" y="337.68" style="stroke: #000000; stroke-width: 0.8"/>
      </g>
     </g>
     <g id="text_18">
      <!-- 0.2 -->
      <g transform="translate(784.6 346.359688)scale(0.25 -0.25)">
       <use xlink:href="#TimesNewRomanPSMT-30"/>
       <use xlink:href="#TimesNewRomanPSMT-2e" x="50"/>
       <use xlink:href="#TimesNewRomanPSMT-32" x="75"/>
      </g>
     </g>
    </g>
    <g id="ytick_12">
     <g id="line2d_39">
      <g>
       <use xlink:href="#m39e0e63df8" x="777.6" y="282.24" style="stroke: #000000; stroke-width: 0.8"/>
      </g>
     </g>
     <g id="text_19">
      <!-- 0.3 -->
      <g transform="translate(784.6 290.919688)scale(0.25 -0.25)">
       <use xlink:href="#TimesNewRomanPSMT-30"/>
       <use xlink:href="#TimesNewRomanPSMT-2e" x="50"/>
       <use xlink:href="#TimesNewRomanPSMT-33" x="75"/>
      </g>
     </g>
    </g>
    <g id="ytick_13">
     <g id="line2d_40">
      <g>
       <use xlink:href="#m39e0e63df8" x="777.6" y="226.8" style="stroke: #000000; stroke-width: 0.8"/>
      </g>
     </g>
     <g id="text_20">
      <!-- 0.4 -->
      <g transform="translate(784.6 235.479688)scale(0.25 -0.25)">
       <defs>
        <path id="TimesNewRomanPSMT-34" d="M 2978 1563 
L 2978 1119 
L 2409 1119 
L 2409 0 
L 1894 0 
L 1894 1119 
L 100 1119 
L 100 1519 
L 2066 4325 
L 2409 4325 
L 2409 1563 
L 2978 1563 
z
M 1894 1563 
L 1894 3666 
L 406 1563 
L 1894 1563 
z
" transform="scale(0.015625)"/>
       </defs>
       <use xlink:href="#TimesNewRomanPSMT-30"/>
       <use xlink:href="#TimesNewRomanPSMT-2e" x="50"/>
       <use xlink:href="#TimesNewRomanPSMT-34" x="75"/>
      </g>
     </g>
    </g>
    <g id="ytick_14">
     <g id="line2d_41">
      <g>
       <use xlink:href="#m39e0e63df8" x="777.6" y="171.36" style="stroke: #000000; stroke-width: 0.8"/>
      </g>
     </g>
     <g id="text_21">
      <!-- 0.5 -->
      <g transform="translate(784.6 180.039688)scale(0.25 -0.25)">
       <use xlink:href="#TimesNewRomanPSMT-30"/>
       <use xlink:href="#TimesNewRomanPSMT-2e" x="50"/>
       <use xlink:href="#TimesNewRomanPSMT-35" x="75"/>
      </g>
     </g>
    </g>
    <g id="ytick_15">
     <g id="line2d_42">
      <g>
       <use xlink:href="#m39e0e63df8" x="777.6" y="115.92" style="stroke: #000000; stroke-width: 0.8"/>
      </g>
     </g>
     <g id="text_22">
      <!-- 0.6 -->
      <g transform="translate(784.6 124.599687)scale(0.25 -0.25)">
       <defs>
        <path id="TimesNewRomanPSMT-36" d="M 2869 4325 
L 2869 4209 
Q 2456 4169 2195 4045 
Q 1934 3922 1679 3669 
Q 1425 3416 1258 3105 
Q 1091 2794 978 2366 
Q 1428 2675 1881 2675 
Q 2316 2675 2634 2325 
Q 2953 1975 2953 1425 
Q 2953 894 2631 456 
Q 2244 -75 1606 -75 
Q 1172 -75 869 213 
Q 275 772 275 1663 
Q 275 2231 503 2743 
Q 731 3256 1154 3653 
Q 1578 4050 1965 4187 
Q 2353 4325 2688 4325 
L 2869 4325 
z
M 925 2138 
Q 869 1716 869 1456 
Q 869 1156 980 804 
Q 1091 453 1309 247 
Q 1469 100 1697 100 
Q 1969 100 2183 356 
Q 2397 613 2397 1088 
Q 2397 1622 2184 2012 
Q 1972 2403 1581 2403 
Q 1463 2403 1327 2353 
Q 1191 2303 925 2138 
z
" transform="scale(0.015625)"/>
       </defs>
       <use xlink:href="#TimesNewRomanPSMT-30"/>
       <use xlink:href="#TimesNewRomanPSMT-2e" x="50"/>
       <use xlink:href="#TimesNewRomanPSMT-36" x="75"/>
      </g>
     </g>
    </g>
    <g id="ytick_16">
     <g id="line2d_43">
      <g>
       <use xlink:href="#m39e0e63df8" x="777.6" y="60.48" style="stroke: #000000; stroke-width: 0.8"/>
      </g>
     </g>
     <g id="text_23">
      <!-- 0.7 -->
      <g transform="translate(784.6 69.159687)scale(0.25 -0.25)">
       <use xlink:href="#TimesNewRomanPSMT-30"/>
       <use xlink:href="#TimesNewRomanPSMT-2e" x="50"/>
       <use xlink:href="#TimesNewRomanPSMT-37" x="75"/>
      </g>
     </g>
    </g>
   </g>
   <g id="line2d_44">
    <path d="M 138.436364 415.123081 
L 148.581818 410.560259 
L 158.727273 413.929685 
L 168.872727 414.800447 
L 179.018182 415.825556 
L 189.163636 417.27205 
L 199.309091 414.989144 
L 209.454545 414.251017 
L 219.6 411.769 
L 229.745455 408.914144 
L 239.890909 407.551114 
L 250.036364 400.01842 
L 260.181818 390.835523 
L 270.327273 381.76345 
L 280.472727 373.280148 
L 290.618182 358.903333 
L 300.763636 350.340835 
L 310.909091 334.764757 
L 321.054545 323.462741 
L 331.2 310.858262 
L 341.345455 302.725712 
L 351.490909 287.719252 
L 361.636364 276.015163 
L 371.781818 259.705022 
L 381.927273 250.503902 
L 392.072727 235.281526 
L 402.218182 218.794871 
L 412.363636 211.135085 
L 422.509091 188.541769 
L 432.654545 182.840883 
L 442.8 163.675152 
L 452.945455 149.394165 
L 463.090909 136.761381 
L 473.236364 129.847545 
L 483.381818 116.81644 
L 493.527273 110.020302 
L 503.672727 100.06166 
L 513.818182 95.826332 
L 523.963636 90.886713 
L 534.109091 89.435017 
L 544.254545 87.841797 
L 554.4 86.870109 
L 564.545455 86.478088 
L 574.690909 85.70204 
L 584.836364 84.992154 
L 594.981818 83.651066 
L 605.127273 84.139283 
L 615.272727 83.057157 
L 625.418182 82.83613 
L 635.563636 83.093342 
L 645.709091 82.484538 
L 655.854545 81.928353 
L 666 82.352891 
L 676.145455 82.403388 
L 686.290909 82.658689 
L 696.436364 82.931547 
L 706.581818 82.593501 
L 716.727273 82.683052 
L 726.872727 82.307016 
L 737.018182 82.723847 
L 747.163636 82.692388 
" clip-path="url(#pcb60fce7e7)" style="fill: none; stroke-dasharray: 11.1,4.8; stroke-dashoffset: 0; stroke: #1f77b4; stroke-width: 3"/>
   </g>
   <g id="line2d_45">
    <path d="M 138.436364 415.123081 
L 148.581818 410.436187 
L 158.727273 412.791788 
L 168.872727 415.040077 
L 179.018182 416.098415 
L 189.163636 415.587101 
L 199.309091 414.94854 
L 209.454545 414.003653 
L 219.6 412.348755 
L 229.745455 410.438261 
L 239.890909 405.956004 
L 250.036364 399.712973 
L 260.181818 392.41141 
L 270.327273 382.398217 
L 280.472727 371.14918 
L 290.618182 362.337178 
L 300.763636 353.334312 
L 310.909091 340.515365 
L 321.054545 323.934416 
L 331.2 307.503376 
L 341.345455 300.154473 
L 351.490909 286.337198 
L 361.636364 269.893549 
L 371.781818 263.851493 
L 381.927273 250.791444 
L 392.072727 243.041094 
L 402.218182 223.234758 
L 412.363636 210.849823 
L 422.509091 196.999202 
L 432.654545 186.604177 
L 442.8 162.454292 
L 452.945455 154.428696 
L 463.090909 142.490095 
L 473.236364 131.423317 
L 483.381818 116.814614 
L 493.527273 110.82805 
L 503.672727 104.681401 
L 513.818182 99.365232 
L 523.963636 95.920336 
L 534.109091 91.949793 
L 544.254545 90.78977 
L 554.4 88.689414 
L 564.545455 88.157286 
L 574.690909 87.303927 
L 584.836364 86.830295 
L 594.981818 86.159175 
L 605.127273 86.22359 
L 615.272727 85.429611 
L 625.418182 84.984201 
L 635.563636 84.532038 
L 645.709091 84.540325 
L 655.854545 84.278859 
L 666 84.376856 
L 676.145455 83.535807 
L 686.290909 83.693851 
L 696.436364 84.06063 
L 706.581818 84.543244 
L 716.727273 84.122218 
L 726.872727 84.44221 
L 737.018182 84.781433 
L 747.163636 84.955189 
" clip-path="url(#pcb60fce7e7)" style="fill: none; stroke-dasharray: 11.1,4.8; stroke-dashoffset: 0; stroke: #ff7f0e; stroke-width: 3"/>
   </g>
   <g id="line2d_46">
    <path d="M 138.436364 415.123081 
L 148.581818 419.086029 
L 158.727273 408.741236 
L 168.872727 415.686881 
L 179.018182 408.300617 
L 189.163636 415.76183 
L 199.309091 409.679008 
L 209.454545 413.494322 
L 219.6 409.778682 
L 229.745455 411.119911 
L 239.890909 408.578437 
L 250.036364 408.904944 
L 260.181818 406.765749 
L 270.327273 408.239672 
L 280.472727 406.334182 
L 290.618182 405.142237 
L 300.763636 402.344142 
L 310.909091 399.489756 
L 321.054545 399.18614 
L 331.2 394.299658 
L 341.345455 391.903052 
L 351.490909 389.784717 
L 361.636364 387.96605 
L 371.781818 381.663286 
L 381.927273 380.039503 
L 392.072727 377.60439 
L 402.218182 375.139234 
L 412.363636 369.193242 
L 422.509091 367.894147 
L 432.654545 363.458709 
L 442.8 358.541022 
L 452.945455 357.56852 
L 463.090909 348.220395 
L 473.236364 342.639984 
L 483.381818 339.759745 
L 493.527273 332.478656 
L 503.672727 324.308076 
L 513.818182 320.789927 
L 523.963636 311.716693 
L 534.109091 305.513238 
L 544.254545 295.316686 
L 554.4 285.39869 
L 564.545455 281.735556 
L 574.690909 273.964002 
L 584.836364 265.156079 
L 594.981818 259.113877 
L 605.127273 250.694158 
L 615.272727 243.288916 
L 625.418182 239.354087 
L 635.563636 231.180675 
L 645.709091 228.82119 
L 655.854545 221.621071 
L 666 216.618843 
L 676.145455 212.855583 
L 686.290909 211.496529 
L 696.436364 207.14065 
L 706.581818 204.464832 
L 716.727273 202.868184 
L 726.872727 200.963363 
L 737.018182 200.157977 
L 747.163636 200.858423 
" clip-path="url(#pcb60fce7e7)" style="fill: none; stroke-dasharray: 11.1,4.8; stroke-dashoffset: 0; stroke: #a7a7a7; stroke-width: 3"/>
   </g>
   <g id="line2d_47">
    <path d="M 138.436364 415.123081 
L 148.581818 414.432046 
L 158.727273 418.528146 
L 168.872727 421.602149 
L 179.018182 422.257503 
L 189.163636 420.766317 
L 199.309091 419.803362 
L 209.454545 417.922716 
L 219.6 415.363769 
L 229.745455 413.29234 
L 239.890909 410.133315 
L 250.036364 403.249753 
L 260.181818 398.156449 
L 270.327273 386.552161 
L 280.472727 379.947955 
L 290.618182 369.775731 
L 300.763636 357.311762 
L 310.909091 348.458897 
L 321.054545 337.980603 
L 331.2 336.957229 
L 341.345455 320.445058 
L 351.490909 320.317962 
L 361.636364 302.212436 
L 371.781818 288.412459 
L 381.927273 283.439874 
L 392.072727 276.885277 
L 402.218182 268.831662 
L 412.363636 261.930017 
L 422.509091 248.176415 
L 432.654545 243.073927 
L 442.8 232.141494 
L 452.945455 225.108182 
L 463.090909 216.207717 
L 473.236364 208.730625 
L 483.381818 205.297023 
L 493.527273 200.23452 
L 503.672727 188.633819 
L 513.818182 188.734066 
L 523.963636 182.261176 
L 534.109091 175.071187 
L 544.254545 164.744753 
L 554.4 164.733046 
L 564.545455 157.925005 
L 574.690909 156.84133 
L 584.836364 149.238882 
L 594.981818 146.709913 
L 605.127273 144.7121 
L 615.272727 141.473652 
L 625.418182 140.310361 
L 635.563636 137.654557 
L 645.709091 133.319262 
L 655.854545 133.28338 
L 666 131.746953 
L 676.145455 131.136888 
L 686.290909 127.060277 
L 696.436364 96.440413 
L 706.581818 89.416052 
L 716.727273 86.205723 
L 726.872727 83.720615 
L 737.018182 83.551766 
L 747.163636 83.170866 
" clip-path="url(#pcb60fce7e7)" style="fill: none; stroke-dasharray: 11.1,4.8; stroke-dashoffset: 0; stroke: #2ca02c; stroke-width: 3"/>
   </g>
   <g id="line2d_48">
    <path d="M 138.436364 415.123081 
L 148.581818 414.313257 
L 158.727273 419.122699 
L 168.872727 421.277351 
L 179.018182 421.540417 
L 189.163636 422.269398 
L 199.309091 421.266459 
L 209.454545 420.340882 
L 219.6 417.466905 
L 229.745455 412.997959 
L 239.890909 410.117724 
L 250.036364 402.276116 
L 260.181818 400.602776 
L 270.327273 391.113866 
L 280.472727 379.563555 
L 290.618182 366.936492 
L 300.763636 361.966686 
L 310.909091 356.156444 
L 321.054545 342.808179 
L 331.2 337.995534 
L 341.345455 326.195823 
L 351.490909 310.641206 
L 361.636364 301.34069 
L 371.781818 293.578816 
L 381.927273 284.228723 
L 392.072727 272.858318 
L 402.218182 266.973993 
L 412.363636 264.980498 
L 422.509091 257.663394 
L 432.654545 246.039078 
L 442.8 235.105441 
L 452.945455 230.167258 
L 463.090909 220.976894 
L 473.236364 214.943039 
L 483.381818 208.901825 
L 493.527273 203.433362 
L 503.672727 196.445831 
L 513.818182 195.275289 
L 523.963636 188.181473 
L 534.109091 180.637485 
L 544.254545 172.708456 
L 554.4 170.193567 
L 564.545455 165.757876 
L 574.690909 159.248452 
L 584.836364 151.21558 
L 594.981818 143.063128 
L 605.127273 146.541864 
L 615.272727 136.07442 
L 625.418182 127.210093 
L 635.563636 129.630449 
L 645.709091 124.918864 
L 655.854545 126.506126 
L 666 123.910299 
L 676.145455 124.106512 
L 686.290909 117.696132 
L 696.436364 93.295016 
L 706.581818 86.240107 
L 716.727273 84.583472 
L 726.872727 83.203042 
L 737.018182 83.063275 
L 747.163636 82.449901 
" clip-path="url(#pcb60fce7e7)" style="fill: none; stroke-dasharray: 11.1,4.8; stroke-dashoffset: 0; stroke: #d62728; stroke-width: 3"/>
   </g>
   <g id="patch_7">
    <path d="M 108 448.56 
L 108 60.48 
" style="fill: none; stroke: #000000; stroke-width: 0.8; stroke-linejoin: miter; stroke-linecap: square"/>
   </g>
   <g id="patch_8">
    <path d="M 777.6 448.56 
L 777.6 60.48 
" style="fill: none; stroke: #000000; stroke-width: 0.8; stroke-linejoin: miter; stroke-linecap: square"/>
   </g>
   <g id="patch_9">
    <path d="M 108 448.56 
L 777.6 448.56 
" style="fill: none; stroke: #000000; stroke-width: 0.8; stroke-linejoin: miter; stroke-linecap: square"/>
   </g>
   <g id="patch_10">
    <path d="M 108 60.48 
L 777.6 60.48 
" style="fill: none; stroke: #000000; stroke-width: 0.8; stroke-linejoin: miter; stroke-linecap: square"/>
   </g>
  </g>
 </g>
 <defs>
  <clipPath id="pcb60fce7e7">
   <rect x="108" y="60.48" width="669.6" height="388.08"/>
  </clipPath>
 </defs>
</svg>
